<svg viewBox="0 0 800 800" xmlns="http://www.w3.org/2000/svg"><path d="M645.4525372157724,281.4980086579439 L654.7403684111464,283.9687359870973 M654.7403684111464,283.9687359870973 L664.55643705411,285.6272821643113 M664.55643705411,285.6272821643113 L674.6883909439363,286.4374605117773 M674.6883909439363,286.4374605117773 L684.9168663035946,286.38158172299995 M684.9168663035946,286.38158172299995 L695.0203728430436,285.46086517080187 M695.0203728430436,285.46086517080187 L704.7801788740887,283.69540947598205 M704.7801788740887,283.69540947598205 L713.9851849389009,281.12373993943186 M713.9851849389009,281.12373993943186 L722.436566724183,277.8019167832175 M722.436566724183,277.8019167832175 L729.9521632493663,273.8022670567904 M729.9521632493663,273.8022670567904 L736.3704304666988,269.2117432146879 M736.3704304666988,269.2117432146879 L741.5539296234399,264.1299654492193 M741.5539296234399,264.1299654492193 L745.3922465213577,258.66699336763435 M745.3922465213577,258.66699336763435 L747.8042800920905,252.94088421816548 M747.8042800920905,252.94088421816548 L748.7398631916831,247.0750884333757 M748.7398631916831,247.0750884333757 L748.1807212372182,241.19576335633838 M748.1807212372182,241.19576335633838 L746.1406929778111,235.42904765333662 M746.1406929778111,235.42904765333662 L742.6652703416382,229.89836439129272 M742.6652703416382,229.89836439129272 L737.8305017345563,224.72179403629076 M737.8305017345563,224.72179403629076 L731.741214433943,220.00961938094815 M731.741214433943,220.00961938094815 L724.5286949462783,215.8620151371665 M724.5286949462783,215.8620151371665 L716.3478189511152,212.36698934471423 M716.3478189511152,212.36698934471423 L707.373728027343,209.5985841287258 M707.373728027343,209.5985841287258 L697.7981252327135,207.6153674170505 M697.7981252327135,207.6153674170505 L687.8252143719991,206.45925927757003 M687.8252143719991,206.45925927757003 L677.66747349538,206.15467414881408 M677.66747349538,206.15467414881408 L667.5412135748319,206.70804493025219 M667.5412135748319,206.70804493025219 L657.6620900350584,208.10769011791217 M657.6620900350584,208.10769011791217 L648.2406235010619,210.3240383109911 M648.2406235010619,210.3240383109911 L639.477827188586,213.3102343980142 M639.477827188586,213.3102343980142 L631.560991155908,217.0030793158233 M631.560991155908,217.0030793158233 L624.6597383005288,221.32430588824406 M624.6597383005288,221.32430588824406 L618.922415685007,226.18217294649878 M618.922415685007,226.18217294649878 L614.4728986099109,231.47334975071868 M614.4728986099109,231.47334975071868 L611.4078695077611,237.08504173767727 M611.4078695077611,237.08504173767727 L609.7946593646033,242.89735305680802 M609.7946593646033,242.89735305680802 L609.6696537061117,248.78579695190126 M609.6696537061117,248.78579695190126 L611.0373752300642,254.62395459313922 M611.0373752300642,254.62395459313922 L613.8702270475915,260.2861694865638 M613.8702270475915,260.2861694865638 L618.1089441392148,265.6502816530682 M618.0749694995784,249.84382351488745 L618.1089441392148,265.6502816530682 M618.0749694995784,249.84382351488745 L613.833906738383,244.48268935606848 M613.833906738383,244.48268935606848 L610.9994937754537,238.82362040998765 M610.9994937754537,238.82362040998765 L609.6310274113844,232.98870909581302 M609.6310274113844,232.98870909581302 L609.7561185540958,227.10354218960532 M609.7561185540958,227.10354218960532 L611.3702406252737,221.29446814987688 M611.3702406252737,221.29446814987688 L614.436986578491,215.68590421018195 M614.436986578491,215.68590421018195 L618.8889868867502,210.39767904860935 M618.8889868867502,210.39767904860935 L624.6295045364946,205.5425238422448 M624.6295045364946,205.5425238422448 L631.5345948762726,201.22371109888672 M631.5345948762726,201.22371109888672 L639.4558282761311,197.532930154506 M639.4558282761311,197.532930154506 L648.2234878392028,194.5484038666297 M648.2234878392028,194.5484038666297 L657.6501800565785,192.3332954456772 M657.6501800565785,192.3332954456772 L667.5347809467314,190.93443338392564 M667.5347809467314,190.93443338392564 L677.6666540647027,190.3813722653548 M677.6666540647027,190.3813722653548 L687.8300254406267,190.68578694719326 M687.8300254406267,190.68578694719326 L697.8084652096315,191.8412481904923 M697.8084652096315,191.8412481904923 L707.3893784621346,193.8233554437782 M707.3893784621346,193.8233554437782 L716.3684489305065,196.59021246268435 M716.3684489305065,196.59021246268435 L724.5538677513396,200.08328456025015 M724.5538677513396,200.08328456025015 L731.7703963900326,204.22857156181493 M731.7703963900326,204.22857156181493 L737.86307308586,208.93811518517288 M737.86307308586,208.93811518517288 L742.7005379712923,214.11179721547728 M742.7005379712923,214.11179721547728 L746.1779047548566,219.63939688710656 M746.1779047548566,219.63939688710656 L748.2190817152543,225.4028999489854 M748.2190817152543,225.4028999489854 L748.7785503834796,231.27895232742242 M748.7785503834796,231.27895232742242 L747.8424629601752,237.14148563847402 M747.8424629601752,237.14148563847402 L745.42910284015,242.86441260135314 M745.42910284015,242.86441260135314 L741.588663834063,248.32435112032277 M741.588663834063,248.32435112032277 L736.4022911039797,253.40330909385568 M736.4022911039797,253.40330909385568 L729.9804595535272,257.9912874685849 M729.9804595535272,257.9912874685849 L722.46068403901,261.9887207135801 M722.46068403901,261.9887207135801 L714.0045985135346,265.308703969723 M714.0045985135346,265.308703969723 L704.7944657173183,267.87894969586677 M704.7944657173183,267.87894969586677 L695.0292213373293,269.64342824171706 M695.0292213373293,269.64342824171706 L684.920083306562,270.56363529004926 M684.920083306562,270.56363529004926 L674.6859062115143,270.61948315889344 M674.6859062115143,270.61948315889344 L664.5483048411672,269.80975313889064 M664.5483048411672,269.80975313889064 L654.7267662374429,268.15212490957305 M654.7267662374429,268.15212490957305 L645.4337618017383,265.68276544139127 M645.4337618017383,265.68276544139127 L645.4525372157724,281.4980086579439 M665.4815484839887,238.33005159357663 L618.1089441392148,265.6502816530682 M692.8252428523618,254.1169408977957 L665.4815484839887,238.33005159357663 M645.4525372157724,281.4980086579439 L692.8252428523618,254.1169408977957 M667.1474841484305,220.36633053398498 L668.865617304937,219.96790229571752 M668.865617304937,219.96790229571752 L670.3684359154659,219.34418397281905 M670.3684359154659,219.34418397281905 L671.568563776318,218.53147424307463 M671.568563776318,218.53147424307463 L672.3962711155225,217.5770614008946 M672.3962711155225,217.5770614008946 L672.8035149265933,216.53646048917597 M672.8035149265933,216.53646048917597 L672.7667148778023,215.47016646668914 M672.7667148778023,215.47016646668914 L672.2881100181587,214.44014996303122 M672.2881100181587,214.44014996303122 L671.3955956537324,213.5062427299976 M671.3955956537324,213.5062427299976 L670.1411016950897,212.72267198305633 M670.1411016950897,212.72267198305633 L668.5975325709944,212.13491928951686 M668.5975325709944,212.13491928951686 L666.8545649173279,211.77709179056149 M666.8545649173279,211.77709179056149 L665.013412759672,211.66994872719368 M665.013412759672,211.66994872719368 L663.180981490101,211.81970704885163 M663.180981490101,211.81970704885163 L661.4636732974752,212.21767608228316 M661.4636732974752,212.21767608228316 L659.9612210782017,212.84076917583218 M659.9612210782017,212.84076917583218 L658.7609098917987,213.65282672926662 M658.7609098917987,213.65282672926662 L657.932511509169,214.60670985460303 M657.932511509169,214.60670985460303 L657.5242331510956,215.64702976419318 M657.5242331510956,215.64702976419318 L657.5598859510822,216.7133481428669 M657.5598859510822,216.7133481428669 L658.0374972801446,217.74369501271673 M658.0374972801446,217.74369501271673 L658.9293968380207,218.67816143996686 M658.9293968380207,218.67816143996686 L660.1838017654882,219.46239152671853 M660.1838017654882,219.46239152671853 L661.7278172182223,220.0507505811389 M661.7278172182223,220.0507505811389 L663.4716741197462,220.4089952072233 M663.4716741197462,220.4089952072233 L665.3139498236378,220.51627043423565 M665.3139498236378,220.51627043423565 L667.1474841484305,220.36633053398498 M724.0276773504154,253.16236090934063 L723.7702337220951,254.22391350267173 M723.7702337220951,254.22391350267173 L723.960183454589,255.29082922140185 M723.960183454589,255.29082922140185 L724.586583962235,256.3010927704284 M724.586583962235,256.3010927704284 L725.6131085360782,257.1959552611546 M725.6131085360782,257.1959552611546 L726.9801410937159,257.92335922404294 M726.9801410937159,257.92335922404294 L728.6082234884879,258.4409730002357 M728.6082234884879,258.4409730002357 L730.4026839818666,258.7186657841198 M730.4026839818666,258.7186657841198 L732.2591483244943,258.74027160463714 M732.2591483244943,258.74027160463714 L734.0696318967161,258.50453333862293 M734.0696318967161,258.50453333862293 L735.728821827757,258.0251727480544 M735.728821827757,258.0251727480544 L737.1402369379964,257.3300969391176 M737.1402369379964,257.3300969391176 L738.221833960492,256.4597565117779 M738.221833960492,256.4597565117779 L738.9107837178615,255.46478599490888 M738.9107837178615,255.46478599490888 L739.1671230583559,254.4030488371153 M739.1671230583559,254.4030488371153 L738.9760440730975,253.33626635379414 M738.9760440730975,253.33626635379414 L738.3487506597878,252.32642482403133 M738.3487506597878,252.32642482403133 L737.3217737707332,251.43217361573153 M737.3217737707332,251.43217361573153 L735.9548377519169,250.70543584352947 M735.9548377519169,250.70543584352947 L734.3273749942327,250.1883842875768 M734.3273749942327,250.1883842875768 L732.5339142937077,249.91102454845088 M732.5339142937077,249.91102454845088 L730.6785982438295,249.88944479532216 M730.6785982438295,249.88944479532216 L728.8691592564563,250.1248982675612 M728.8691592564563,250.1248982675612 L727.2106574341196,250.6037248493319 M727.2106574341196,250.6037248493319 L725.7994248659398,251.29814319347525 M725.7994248659398,251.29814319347525 L724.7174629994716,252.1678533165761 M724.7174629994716,252.1678533165761 L724.0276773504154,253.16236090934063 M665.4739572330368,222.53878435107362 L618.0749694995784,249.84382351488745 M665.4815484839887,238.33005159357663 L665.4739572330368,222.53878435107362 M645.4337618017383,265.68276544139127 L692.8328509962189,238.31688853561485 M692.8328509962189,238.31688853561485 L665.4739572330368,222.53878435107362 M668.5588852366093,193.01957304442243 L655.8823665916643,194.9730699983338 M677.8358986313876,198.3579010567721 L668.5588852366093,193.01957304442243 M655.8823665916643,194.9730699983338 L652.4723571166514,202.2683802744881 M674.4363878475057,205.65670191774677 L677.8358986313876,198.3579010567721 M652.4723571166514,202.2683802744881 L661.7493636158438,207.6136879592529 M661.7493636158438,207.6136879592529 L674.4363878475057,205.65670191774677 M740.828382313065,243.88602274718295 L744.2027657538167,236.547789415774 M728.1163147566556,245.85358506165096 L740.828382313065,243.88602274718295 M718.7891779184943,240.47939283464143 L728.1163147566556,245.85358506165096 M722.1741332068972,233.1446784081174 L718.7891779184943,240.47939283464143 M734.8756548550233,231.18063349322836 L722.1741332068972,233.1446784081174 M744.2027657538167,236.547789415774 L734.8756548550233,231.18063349322836 M692.8252428523618,254.1169408977957 L692.8328509962189,238.31688853561485 M667.1474841484305,220.36633053398498 L667.1434906582574,210.89968334141042 M667.1434906582574,210.89968334141042 L665.3093460156952,211.0495730303304 M665.3093460156952,211.0495730303304 L663.4664571662527,210.94233372715019 M663.4664571662527,210.94233372715019 L661.7220199884048,210.58420907228253 M661.7220199884048,210.58420907228253 L660.1774909026942,209.99604706431433 M660.1774909026942,209.99604706431433 L658.9226688609779,209.2120796481433 M658.9226688609779,209.2120796481433 L658.0304729438508,208.27792624941935 M658.0304729438508,208.27792624941935 L657.5527031993429,207.24792457371962 M657.5527031993429,207.24792457371962 L657.5170390770791,206.18196349307834 M657.5170390770791,206.18196349307834 L657.9254537983771,205.14199222146505 M657.9254537983771,205.14199222146505 L658.7541282475786,204.18842881154205 M658.7541282475786,204.18842881154205 L659.9548391191792,203.3766434711298 M659.9548391191792,203.3766434711298 L661.4577914041861,202.75375926805867 M661.4577914041861,202.75375926805867 L663.1756710021068,202.35592366233254 M663.1756710021068,202.35592366233254 L665.0087118556428,202.20621555230753 M665.0087118556428,202.20621555230753 L666.8504764110774,202.31332269216762 M666.8504764110774,202.31332269216762 L668.594023749768,202.67103022068073 M668.594023749768,202.67103022068073 L670.1381062091035,203.25858586875785 M670.1381062091035,203.25858586875785 L671.3930173427682,204.04189394698625 M671.3930173427682,204.04189394698625 L672.285828475402,204.97548815311575 M672.285828475402,204.97548815311575 L672.7645924118788,206.0051594634345 M672.7645924118788,206.0051594634345 L672.8014045461143,207.07109618720074 M672.8014045461143,207.07109618720074 L672.3940250607382,208.11134846100066 M672.3940250607382,208.11134846100066 L671.5660421138706,209.0654415859683 M671.5660421138706,209.0654415859683 L670.3655146896256,209.87787910108977 M670.3655146896256,209.87787910108977 L668.8621957701589,210.5013885324741 M668.8621957701589,210.5013885324741 L667.1434906582574,210.89968334141042 M724.0276773504154,253.16236090934063 L724.0426502804954,243.68475621927814 M724.0426502804954,243.68475621927814 L724.7326649832285,242.69058015993818 M724.7326649832285,242.69058015993818 L725.8149868224573,241.821160005266 M725.8149868224573,241.821160005266 L727.226689343049,241.1269732113285 M727.226689343049,241.1269732113285 L728.885743795439,240.64830630498528 M728.885743795439,240.64830630498528 L730.6957860113192,240.41293135391538 M730.6957860113192,240.41293135391538 L732.5517208930078,240.4345039103232 M732.5517208930078,240.4345039103232 L734.3457801278578,240.71177115354965 M734.3457801278578,240.71177115354965 L735.9737863952442,241.22865028910672 M735.9737863952442,241.22865028910672 L737.341179347848,241.95514573837602 M737.341179347848,241.95514573837602 L738.3685000452529,242.84909880218856 M738.3685000452529,242.84909880218856 L738.9960041344448,243.85860369461489 M738.9960041344448,243.85860369461489 L739.1871483690423,244.9250306109297 M739.1871483690423,244.9250306109297 L738.9307249940407,245.98641393638292 M738.9307249940407,245.98641393638292 L738.2415467405485,246.98105291943403 M738.2415467405485,246.98105291943403 L737.1595899904289,247.8511033789967 M737.1595899904289,247.8511033789967 L735.7477048067606,248.545947637883 M735.7477048067606,248.545947637883 L734.0879617862197,249.0251485526478 M734.0879617862197,249.0251485526478 L732.2768742900123,249.26080829781148 M732.2768742900123,249.26080829781148 L730.4197903478872,249.23920967375756 M730.4197903478872,249.23920967375756 L728.6247306525321,248.96160938569415 M728.6247306525321,248.96160938569415 L726.9961043342679,248.44416802951264 M726.9961043342679,248.44416802951264 L725.6286147780345,247.71700639015364 M725.6286147780345,247.71700639015364 L724.6017466960834,246.8224420432677 M724.6017466960834,246.8224420432677 L723.9751361075099,245.81251513172907 M723.9751361075099,245.81251513172907 L723.7851218791541,244.74595497997393 M723.7851218791541,244.74595497997393 L724.0426502804954,243.68475621927814 M668.5612324677921,199.3315830319309 L655.8875250529508,201.28551772724666 M655.8875250529508,201.28551772724666 L655.8823665916643,194.9730699983338 M668.5612324677921,199.3315830319309 L668.5588852366093,193.01957304442243 M677.8361891599418,204.67110697867486 L668.5612324677921,199.3315830319309 M677.8361891599418,204.67110697867486 L677.8358986313876,198.3579010567721 M655.8875250529508,201.28551772724666 L652.478274764688,208.5824616862065 M652.478274764688,208.5824616862065 L652.4723571166514,202.2683802744881 M674.4374329060615,211.97154152963208 L677.8361891599418,204.67110697867486 M674.4374329060615,211.97154152963208 L674.4363878475057,205.65670191774677 M652.478274764688,208.5824616862065 L661.7532245658394,213.92896531938374 M661.7532245658394,213.92896531938374 L661.7493636158438,207.6136879592529 M661.7532245658394,213.92896531938374 L674.4374329060615,211.97154152963208 M740.8146574981893,250.20939195694854 L744.1882975904625,242.86952489491068 M744.1882975904625,242.86952489491068 L744.2027657538167,236.547789415774 M740.8146574981893,250.20939195694854 L740.828382313065,243.88602274718295 M728.1054169587244,252.177392028258 L740.8146574981893,250.20939195694854 M728.1054169587244,252.177392028258 L728.1163147566556,245.85358506165096 M718.7803590987646,246.80200382705465 L728.1054169587244,252.177392028258 M718.7803590987646,246.80200382705465 L718.7891779184943,240.47939283464143 M722.1645663331934,239.4656556708204 L718.7803590987646,246.80200382705465 M722.1645663331934,239.4656556708204 L722.1741332068972,233.1446784081174 M734.8632656525662,237.50117299967286 L722.1645663331934,239.4656556708204 M734.8632656525662,237.50117299967286 L734.8756548550233,231.18063349322836 M744.1882975904625,242.86952489491068 L734.8632656525662,237.50117299967286" stroke="black"  stroke-width="4"  fill="red"/>
<path d="M535.986396127777,354.0555514173385 L542.6063172602323,362.4058467669955 M542.6063172602323,362.4058467669955 L547.8114801937828,371.1042627516355 M547.8114801937828,371.1042627516355 L551.5508664273457,380.07047196975054 M551.5508664273457,380.07047196975054 L553.7868928650325,389.2213551511172 M553.7868928650325,389.2213551511172 L554.4957750280806,398.47178206382296 M554.4957750280806,398.47178206382296 L553.6679281620372,407.7353492036765 M553.6679281620372,407.7353492036765 L551.3081738025962,416.9252011533828 M551.3081738025962,416.9252011533828 L547.4357285177537,425.95483940966335 M547.4357285177537,425.95483940966335 L542.0841983496038,434.7389786191129 M542.0841983496038,434.7389786191129 L535.3013959083765,443.19429508585233 M535.3013959083765,443.19429508585233 L527.1488614990228,451.2403225566078 M527.1488614990228,451.2403225566078 L517.7014452405843,458.8002589336388 M517.7014452405843,458.8002589336388 L507.04670401512135,465.8016623468426 M507.04670401512135,465.8016623468426 L495.28397500904475,472.17727880566304 M495.28397500904475,472.17727880566304 L482.52360378263916,477.8656822312055 M482.52360378263916,477.8656822312055 L468.88585814195756,482.8119219591956 M468.88585814195756,482.8119219591956 L454.4997081488194,486.9681311941208 M454.4997081488194,486.9681311941208 L439.5016763779369,490.2940122589789 M439.5016763779369,490.2940122589789 L424.0344100905911,492.757263986976 M424.0344100905911,492.757263986976 L408.2453236304847,494.3339268263468 M408.2453236304847,494.3339268263468 L392.2849962774744,495.00868081549777 M392.2849962774744,495.00868081549777 L376.30591237745205,494.7749107619808 M376.30591237745205,494.7749107619808 L360.46052206327516,493.6349614336598 M360.46052206327516,493.6349614336598 L344.90019259843007,491.59984659080476 M344.90019259843007,491.59984659080476 L329.7731642675028,488.6894329097463 M329.7731642675028,488.6894329097463 L315.2234689999797,484.931988389547 M315.2234689999797,484.931988389547 L301.38937417504235,480.3639305932272 M301.1759304823223,464.44011702429293 L301.38937417504235,480.3639305932272 M535.9062146077401,338.2003372403515 L542.5297988318156,346.54605894331104 M542.5297988318156,346.54605894331104 L547.7378340843941,355.2397164062988 M547.7378340843941,355.2397164062988 L551.4792724063858,364.20102679793195 M551.4792724063858,364.20102679793195 L553.7165085823893,373.34691673591226 M553.7165085823893,373.34691673591226 L554.4257436191842,382.59230274438596 M554.4257436191842,382.59230274438596 L553.5973861475752,391.8508285255713 M553.5973861475752,391.8508285255713 L551.2362591772182,401.0356858644551 M551.2362591772182,401.0356858644551 L547.3615889063256,410.0604230176207 M547.3615889063256,410.0604230176207 L542.0069992318884,418.83980049442766 M542.0069992318884,418.83980049442766 L535.2203288079688,427.2905391774366 M535.2203288079688,427.2905391774366 L527.0631519611709,435.33221564874714 M527.0631519611709,435.33221564874714 L517.6103606231164,442.88806849999673 M517.6103606231164,442.88806849999673 L506.9495609761907,449.8856940673729 M506.9495609761907,449.8856940673729 L495.18014649394866,456.25787367992984 M495.18014649394866,456.25787367992984 L482.41252558234453,461.9432133923417 M482.41252558234453,461.9432133923417 L468.7670348297695,466.8867911854443 M468.7670348297695,466.8867911854443 L454.3727183034924,471.04076513821497 M454.3727183034924,471.04076513821497 L439.366177118316,474.3648584589964 M439.366177118316,474.3648584589964 L423.8901407509321,476.82678668531446 M423.8901407509321,476.82678668531446 L408.0921086045511,478.4026026350299 M408.0921086045511,478.4026026350299 L392.1227468836105,479.07699424580665 M392.1227468836105,479.07699424580665 L376.13462793359867,478.84334973507043 M376.13462793359867,478.84334973507043 L360.28028978157244,477.70401266105887 M360.28028978157244,477.70401266105887 L344.71118680879374,475.66999110877896 M344.71118680879374,475.66999110877896 L329.5756444041814,472.76114150321075 M329.5756444041814,472.76114150321075 L315.0177769092933,469.00571723812584 M315.0177769092933,469.00571723812584 L301.1759304823223,464.44011702429293 M535.9062146077401,338.2003372403515 L535.986396127777,354.0555514173385 M527.7539518977273,349.5269062385338 L530.3258744628582,351.13936390072746 M530.3258744628582,351.13936390072746 L533.073885539506,352.6510582261981 M533.073885539506,352.6510582261981 L535.986396127777,354.0555514173385 M301.38937417504235,480.3639305932272 L527.7539518977273,349.5269062385338 M356.1489397975328,485.10707967036865 L357.9080389784589,484.69364106722514 M357.9080389784589,484.69364106722514 L359.45284635003713,484.046416918659 M359.45284635003713,484.046416918659 L360.6935232735415,483.2030863617898 M360.6935232735415,483.2030863617898 L361.5579960309113,482.212715848711 M361.5579960309113,482.212715848711 L361.99604357240315,481.1329284379077 M361.99604357240315,481.1329284379077 L361.98239946298156,480.0264480372467 M361.98239946298156,480.0264480372467 L361.51786465442694,478.9576333616624 M361.51786465442694,478.9576333616624 L360.62954738001093,477.9885537701574 M360.62954738001093,477.9885537701574 L359.36914726927336,477.17547179228825 M359.36914726927336,477.17547179228825 L357.8098999708335,476.56558862978227 M357.8098999708335,476.56558862978227 L356.0424114721353,476.1942840310736 M356.0424114721353,476.1942840310736 L354.1693081553623,476.08310454476646 M354.1693081553623,476.08310454476646 L352.29932490289855,476.23851501610284 M352.29932490289855,476.23851501610284 L350.54109225773504,476.65146825713464 M350.54109225773504,476.65146825713464 L348.99667925787077,477.2980314846857 M348.99667925787077,477.2980314846857 L347.7558269415744,478.14067267103724 M347.7558269415744,478.14067267103724 L346.8906518259528,479.13048484178955 M346.8906518259528,479.13048484178955 L346.4515358774864,480.20997285110263 M346.4515358774864,480.20997285110263 L346.4639876262689,481.31647981889694 M346.4639876262689,481.31647981889694 L346.9274839573167,482.3856437058081 M346.9274839573167,482.3856437058081 L347.81515191158326,483.3553135926271 M347.81515191158326,483.3553135926271 L349.07544059928125,484.1690917242229 M349.07544059928125,484.1690917242229 L350.635139912711,484.77961741246565 M350.635139912711,484.77961741246565 L352.4035402948913,485.1513637239839 M352.4035402948913,485.1513637239839 L354.2778064740418,485.26268291394945 M354.2778064740418,485.26268291394945 L356.1489397975328,485.10707967036865 M527.6691863419837,333.67417478408254 L527.7539518977273,349.5269062385338 M301.1759304823223,464.44011702429293 L527.6691863419837,333.67417478408254 M535.9062146077401,338.2003372403515 L532.9920807950879,336.7966138577901 M532.9920807950879,336.7966138577901 L530.2425395545329,335.2857482706621 M530.2425395545329,335.2857482706621 L527.6691863419837,333.67417478408254 M357.66967315060646,457.1793278616965 L344.7128415134796,459.2064255869544 M367.0004418115627,462.71879963611434 L357.66967315060646,457.1793278616965 M363.3742194340333,470.29274622591936 L367.0004418115627,462.71879963611434 M350.4064027003619,472.3235313956077 L363.3742194340333,470.29274622591936 M341.0758003031277,466.77668163202827 L350.4064027003619,472.3235313956077 M344.7128415134796,459.2064255869544 L341.0758003031277,466.77668163202827 M356.1489397975328,485.10707967036865 L356.0394268350417,475.5534204312456 M356.0394268350417,475.5534204312456 L354.1676579119655,475.7089734999097 M354.1676579119655,475.7089734999097 L352.29275710483637,475.59769020516694 M352.29275710483637,475.59769020516694 L350.52376000688446,475.2260637686286 M350.52376000688446,475.2260637686286 L348.96353661606844,474.61573496730216 M348.96353661606844,474.61573496730216 L347.7028269817944,473.80221929619256 M347.7028269817944,473.80221929619256 L346.81486566058743,472.8328621887873 M346.81486566058743,472.8328621887873 L346.35122055986756,471.7640432254924 M346.35122055986756,471.7640432254924 L346.3387732327794,470.65789328506867 M346.3387732327794,470.65789328506867 L346.7780464344413,469.57875364050653 M346.7780464344413,469.57875364050653 L347.6435224692726,468.58926094300466 M347.6435224692726,468.58926094300466 L348.884801828087,467.74689176500374 M348.884801828087,467.74689176500374 L350.42974317014875,467.1005372735491 M350.42974317014875,467.1005372735491 L352.1885747685229,466.6877173603666 M352.1885747685229,466.6877173603666 L354.0591928402258,466.532357067592 M354.0591928402258,466.532357067592 L355.93292999760854,466.6435006564168 M355.93292999760854,466.6435006564168 L357.701014597181,467.0146853730015 M357.701014597181,467.0146853730015 L359.26078567143844,467.62437163819925 M359.26078567143844,467.62437163819925 L360.5216068096103,468.43719114432326 M360.5216068096103,468.43719114432326 L361.410217895718,469.4059579468674 M361.410217895718,469.4059579468674 L361.8749021807095,470.47442769318764 M361.8749021807095,470.47442769318764 L361.8885426761875,471.5805510655214 M361.8885426761875,471.5805510655214 L361.45033860360843,472.6599901164161 M361.45033860360843,472.6599901164161 L360.58556539897586,473.6500411652745 M360.58556539897586,473.6500411652745 L359.34446154661157,474.49309972494257 M359.34446154661157,474.49309972494257 L357.79912556129074,475.1401151486284 M357.79912556129074,475.1401151486284 L356.0394268350417,475.5534204312456 M357.7422776364062,463.54944588110675 L344.78838287952243,465.57698105986697 M344.78838287952243,465.57698105986697 L344.7128415134796,459.2064255869544 M357.7422776364062,463.54944588110675 L357.66967315060646,457.1793278616965 M367.0709660463995,469.0901127846032 L357.7422776364062,463.54944588110675 M367.0709660463995,469.0901127846032 L367.0004418115627,462.71879963611434 M363.4456004073622,476.66569188104745 L367.0709660463995,469.0901127846032 M363.4456004073622,476.66569188104745 L363.3742194340333,470.29274622591936 M350.4807255360617,478.69691446547404 L363.4456004073622,476.66569188104745 M350.4807255360617,478.69691446547404 L350.4064027003619,472.3235313956077 M341.152203277106,473.1488696496731 L350.4807255360617,478.69691446547404 M341.152203277106,473.1488696496731 L341.0758003031277,466.77668163202827 M344.78838287952243,465.57698105986697 L341.152203277106,473.1488696496731" stroke="black"  stroke-width="4"  fill="red"/>
<path d="M290.57034901408554,454.54489481504015 L270.9888319237115,465.83774137102444 M258.82330595306314,457.4831815585036 L290.57034901408554,454.54489481504015 M270.9888319237115,465.83774137102444 L266.748759363922,463.1451662847487 M266.748759363922,463.1451662847487 L262.69162367977896,460.3589177423313 M262.69162367977896,460.3589177423313 L258.82330595306314,457.4831815585036 M505.8518768783664,330.3899966379072 L347.0724369013048,421.95960504110474 M346.9603388188374,412.42640175296106 L347.0724369013048,421.95960504110474 M346.9603388188374,412.42640175296106 L290.4388802529337,445.00111250551697 M290.57034901408554,454.54489481504015 L290.4388802529337,445.00111250551697 M270.7584431050328,449.9217536338159 L270.9888319237115,465.83774137102444 M505.75497798495167,314.5477742497093 L270.7584431050328,449.9217536338159 M505.75497798495167,314.5477742497093 L505.8518768783664,330.3899966379072 M258.6810670549252,447.93844776433696 L290.4388802529337,445.00111250551697 M258.6810670549252,447.93844776433696 L258.82330595306314,457.4831815585036 M258.6810670549252,447.93844776433696 L251.67115995239047,442.0656405276318 M251.67115995239047,442.0656405276318 L245.4458752857884,435.899932585055 M245.4458752857884,435.899932585055 L240.03937775393572,429.4765976460661 M240.03937775393572,429.4765976460661 L240.1877326935616,439.0153444024229 M240.1877326935616,439.0153444024229 L234.51103173513422,430.4743066245328 M234.51103173513422,430.4743066245328 L230.27286202414427,421.6507249980457 M230.27286202414427,421.6507249980457 L227.50966751849853,412.62643115069227 M227.50966751849853,412.62643115069227 L226.2440477086861,403.4848512968699 M226.2440477086861,403.4848512968699 L226.48480802455154,394.3101307215744 M226.48480802455154,394.3101307215744 L228.2268533601895,385.1864276803286 M228.2268533601895,385.1864276803286 L231.45139336256207,376.197081324133 M231.45139336256207,376.197081324133 L236.1262399071579,367.4239273169077 M236.1262399071579,367.4239273169077 L242.2061104666068,358.9465115796645 M242.2061104666068,358.9465115796645 L249.63324122791346,350.84143425530345 M249.63324122791346,350.84143425530345 L258.33788966677844,343.1816749048897 M258.33788966677844,343.1816749048897 L268.2390576151646,336.035970474936 M268.2390576151646,336.035970474936 L279.2453368136213,329.46826181245035 M279.2453368136213,329.46826181245035 L291.2557313596833,323.53709635829256 M291.2557313596833,323.53709635829256 L304.1605218061952,318.29527067162235 M304.1605218061952,318.29527067162235 L317.8423399605659,313.78928948322357 M317.8423399605659,313.78928948322357 L332.1771810061073,310.0590710618371 M332.1771810061073,310.0590710618371 L347.03543653527777,307.1375978396688 M347.03543653527777,307.1375978396688 L362.28312552942214,305.05063784252405 M362.28312552942214,305.05063784252405 L377.7829267192193,303.8166197664241 M377.7829267192193,303.8166197664241 L393.39539899696194,303.44641711612 M393.39539899696194,303.44641711612 L408.9801473667527,303.9432892284303 M408.9801473667527,303.9432892284303 L424.3970624988658,305.3028539085404 M424.3970624988658,305.3028539085404 L439.50741780300507,307.5131339820041 M439.50741780300507,307.5131339820041 L454.1750967413884,310.5546264457145 M454.1750967413884,310.5546264457145 L468.26774397615816,314.40048004084866 M468.26774397615816,314.40048004084866 L481.65788814651114,319.0166853641071 M481.65788814651114,319.0166853641071 L494.22406769561223,324.36234452229155 M494.22406769561223,324.36234452229155 L505.8518768783664,330.3899966379072 M270.7584431050328,449.9217536338159 L260.3084275472206,442.87906083861446 M260.3084275472206,442.87906083861446 L251.10536967892727,435.27083259742244 M251.10536967892727,435.27083259742244 L243.23556240632456,427.17091444182415 M243.23556240632456,427.17091444182415 L236.77212896472048,418.6576611637885 M236.77212896472048,418.6576611637885 L231.77429573795015,409.8131845181912 M231.77429573795015,409.8131845181912 L228.28712003701887,400.7224154898446 M228.28712003701887,400.7224154898446 L226.34082486518173,391.47243750592963 M226.34082486518173,391.47243750592963 L225.95108407498645,382.1513860308818 M225.95108407498645,382.1513860308818 L227.11846769598912,372.84783928921377 M227.11846769598912,372.84783928921377 L229.82896511759347,363.6498103469895 M229.82896511759347,363.6498103469895 L234.05397062886297,354.6440149958986 M234.05397062886297,354.6440149958986 L239.75080949323134,345.91500585032776 M239.75080949323134,345.91500585032776 L246.86318984328977,337.54443563546806 M246.86318984328977,337.54443563546806 L255.32180605159547,329.61033424265315 M255.32180605159547,329.61033424265315 L265.0450686426907,322.1863853850956 M265.0450686426907,322.1863853850956 L275.93996339904413,315.3413528486747 M275.93996339904413,315.3413528486747 L287.90290820184487,309.13840324218194 M287.90290820184487,309.13840324218194 L300.820817448686,303.6346454206042 M300.820817448686,303.6346454206042 L314.5720353153314,298.8806090033691 M314.5720353153314,298.8806090033691 L329.0276052202537,294.91985990050296 M329.0276052202537,294.91985990050296 L344.0523246861635,291.7886220216881 M344.0523246861635,291.7886220216881 L359.5060163099916,289.51548152914296 M359.5060163099916,289.51548152914296 L375.244756411043,288.1211650916527 M375.244756411043,288.1211650916527 L391.1220864872537,287.61840230233236 M391.1220864872537,287.61840230233236 L406.99038755838984,288.0117525053998 M406.99038755838984,288.0117525053998 L422.7021343615136,289.297643892586 M422.7021343615136,289.297643892586 L438.1111400169191,291.4643545143142 M438.1111400169191,291.4643545143142 L453.0739026661204,294.4921205314387 M453.0739026661204,294.4921205314387 L467.4508144871759,298.35330278721233 M467.4508144871759,298.35330278721233 L481.1074292394946,303.012602467505 M481.1074292394946,303.012602467505 L493.9156825195246,308.4273246558029 M493.9156825195246,308.4273246558029 L505.75497798495167,314.5477742497093 M229.722872075272,395.44377818281464 L240.1877326935616,439.0153444024229 M338.02572821094725,385.4650627552944 L229.722872075272,395.44377818281464 M347.0724369013048,421.95960504110474 L338.02572821094725,385.4650627552944 M251.99350101887066,378.8211267290176 L253.7426443532548,378.4137397252978 M253.7426443532548,378.4137397252978 L255.2806933224416,377.7760124144197 M255.2806933224416,377.7760124144197 L256.5182856918019,376.9450466458471 M256.5182856918019,376.9450466458471 L257.38348964651414,375.96919228609147 M257.38348964651414,375.96919228609147 L257.8260937588572,374.9052090555864 M257.8260937588572,374.9052090555864 L257.820423726326,373.8149657633336 M257.820423726326,373.8149657633336 L257.36695966725455,372.76181510351523 M257.36695966725455,372.76181510351523 L256.49213109355753,371.8069216888157 M256.49213109355753,371.8069216888157 L255.24679522094186,371.00576383747125 M255.24679522094186,371.00576383747125 L253.70340461584246,370.40480714821354 M253.70340461584246,370.40480714821354 L251.95156637147292,370.0389409814643 M251.95156637147292,370.0389409814643 L250.09303300255579,369.929391884874 M250.09303300255579,369.929391884874 L248.23571063563585,370.08251475642624 M248.23571063563585,370.08251475642624 L246.4874271641984,370.48942853802544 M246.4874271641984,370.48942853802544 L244.94976891057402,371.1265078912745 M244.94976891057402,371.1265078912745 L243.71200862454054,371.9567993880228 M243.71200862454054,371.9567993880228 L242.84611657502472,372.93210763100694 M242.84611657502472,372.93210763100694 L242.4024618239764,373.9957980111932 M242.4024618239764,373.9957980111932 L242.40695937044092,375.08606880940977 M242.40695937044092,375.08606880940977 L242.85939769431903,376.1395610279782 M242.85939769431903,376.1395610279782 L243.73358225291673,377.09503181596506 M243.73358225291673,377.09503181596506 L244.97880341026118,377.8968705636339 M244.97880341026118,377.8968705636339 L246.5226348225613,378.49845571465096 M246.5226348225613,378.49845571465096 L248.2753684500603,378.86475392156126 M248.2753684500603,378.86475392156126 L250.13504664560134,378.9744396600896 M250.13504664560134,378.9744396600896 L251.99350101887066,378.8211267290176 M458.4096938009058,326.7414260032493 L460.14664008358653,326.33699097635815 M460.14664008358653,326.33699097635815 L461.66996091520116,325.7038884552725 M461.66996091520116,325.7038884552725 L462.89113776064437,324.87894350386415 M462.89113776064437,324.87894350386415 L463.7392168802892,323.9101568053799 M463.7392168802892,323.9101568053799 L464.1649407544188,322.8538886497911 M464.1649407544188,322.8538886497911 L464.14367567584986,321.7715456161203 M464.14367567584986,321.7715456161203 L463.67675040671406,320.72602428937154 M463.67675040671406,320.72602428937154 L462.7913855131821,319.7780643712624 M462.7913855131821,319.7780643712624 L461.53910723855194,318.9827027722917 M461.53910723855194,318.9827027722917 L459.992684444839,318.3861035874347 M459.992684444839,318.3861035874347 L458.24194679141345,318.02289443874974 M458.24194679141345,318.02289443874974 L456.3885875666712,317.9141390823769 M456.3885875666712,317.9141390823769 L454.54019699156447,318.0661494557187 M454.54019699156447,318.0661494557187 L452.8041213320496,318.47010574784684 M452.8041213320496,318.47010574784684 L451.28116595029286,319.102571906747 M451.28116595029286,319.102571906747 L450.0598127653735,319.9268499006674 M450.0598127653735,319.9268499006674 L449.2110533138018,320.8950903205421 M449.2110533138018,320.8950903205421 L448.78427164774865,321.95107489167594 M448.78427164774865,321.95107489167594 L448.80438631134564,323.0334405683759 M448.80438631134564,323.0334405683759 L449.2702929627287,324.07929670519974 M449.2702929627287,324.07929670519974 L450.1550082035398,325.02784142265 M450.1550082035398,325.02784142265 L451.407203477753,325.8238643571962 M451.407203477753,325.8238643571962 L452.95406228780826,326.42109127076446 M452.95406228780826,326.42109127076446 L454.7056844309954,326.78473385438247 M454.7056844309954,326.78473385438247 L456.56018473558487,326.8936258924724 M456.56018473558487,326.8936258924724 L458.4096938009058,326.7414260032493 M338.02572821094725,385.4650627552944 L337.91086848785386,375.94376679803634 M346.9603388188374,412.42640175296106 L337.91086848785386,375.94376679803634 M337.91086848785386,375.94376679803634 L229.5714400377341,385.91922019231197 M229.5714400377341,385.91922019231197 L240.03937775393572,429.4765976460661 M253.53066905459502,351.1269308283738 L240.65461263289882,353.12431614657373 M262.7530760572853,356.5852046556858 L253.53066905459502,351.1269308283738 M259.0992144891742,364.04807772707863 L262.7530760572853,356.5852046556858 M246.21231037967397,366.0490712022231 L259.0992144891742,364.04807772707863 M236.990119693609,360.5835810654587 L246.21231037967397,366.0490712022231 M240.65461263289882,353.12431614657373 L236.990119693609,360.5835810654587 M459.8867794649133,299.1615271612536 L447.0861856702654,301.14443127984964 M469.1540957936253,304.58023010551574 L459.8867794649133,299.1615271612536 M447.0861856702654,301.14443127984964 L443.5421765462183,308.54960648742747 M465.6207057629592,311.9889697223133 L469.1540957936253,304.58023010551574 M443.5421765462183,308.54960648742747 L452.80938141867637,313.9754473800311 M452.80938141867637,313.9754473800311 L465.6207057629592,311.9889697223133 M229.722872075272,395.44377818281464 L229.5714400377341,385.91922019231197 M251.99350101887066,378.8211267290176 L251.8497397115146,369.30200525958185 M251.8497397115146,369.30200525958185 L249.99065831738585,369.4552679896573 M249.99065831738585,369.4552679896573 L248.13035533602243,369.3456181666654 M248.13035533602243,369.3456181666654 L246.3770355313798,368.9794399046583 M246.3770355313798,368.9794399046583 L244.83269067451505,368.37805175727135 M244.83269067451505,368.37805175727135 L243.5870586520128,367.5764756175246 M243.5870586520128,367.5764756175246 L242.71258970183376,366.6213177924433 M242.71258970183376,366.6213177924433 L242.26000993645715,365.56817069319436 M242.26000993645715,365.56817069319436 L242.25552205543923,364.47825711762925 M242.25552205543923,364.47825711762925 L242.69933696668315,363.4149153048843 M242.69933696668315,363.4149153048843 L243.5655302889637,362.4399267134942 M243.5655302889637,362.4399267134942 L244.80371541650078,361.6099073751185 M244.80371541650078,361.6099073751185 L246.34189737375533,360.9730368698347 M246.34189737375533,360.9730368698347 L248.09077301756727,360.5662564930685 M248.09077301756727,360.5662564930685 L249.94872164156533,360.41318382416546 M249.94872164156533,360.41318382416546 L251.8078790271868,360.5226970040311 M251.8078790271868,360.5226970040311 L253.56030285043968,360.8884432221207 M253.56030285043968,360.8884432221207 L255.10420660976237,361.489202902284 M255.10420660976237,361.489202902284 L256.34995343160233,362.2900981397863 M256.34995343160233,362.2900981397863 L257.22506683613506,363.2446785865601 M257.22506683613506,363.2446785865601 L257.6786730304897,364.29748412408946 M257.6786730304897,364.29748412408946 L257.6843341869615,365.3873701934516 M257.6843341869615,365.3873701934516 L257.24157061857625,366.4510048590615 M257.24157061857625,366.4510048590615 L256.37606584870025,367.4265395719715 M256.37606584870025,367.4265395719715 L255.13804874405471,368.2572331880342 M255.13804874405471,368.2572331880342 L253.5994758017489,368.89475165658075 M253.5994758017489,368.89475165658075 L251.8497397115146,369.30200525958185 M458.4096938009058,326.7414260032493 L458.3356732917933,317.2394214024921 M458.3356732917933,317.2394214024921 L456.4855432263065,317.3915710832453 M456.4855432263065,317.3915710832453 L454.6304216102659,317.28271496690144 M454.6304216102659,317.28271496690144 L452.8782140163504,316.91919234720166 M452.8782140163504,316.91919234720166 L451.33083969532055,316.32216246934814 M451.33083969532055,316.32216246934814 L450.07822882268493,315.5264021828569 M450.07822882268493,315.5264021828569 L449.1932220605694,314.57817047690196 M449.1932220605694,314.57817047690196 L448.7271648591184,313.5326595124301 M448.7271648591184,313.5326595124301 L448.707049305615,312.45065111166264 M448.707049305615,312.45065111166264 L449.13397973867757,311.39501516135067 M449.13397973867757,311.39501516135067 L449.98302889968005,310.4270944405853 M449.98302889968005,310.4270944405853 L451.2047958609129,309.60308864610846 M451.2047958609129,309.60308864610846 L452.72826503029125,308.9708313666821 M452.72826503029125,308.9708313666821 L454.4649246493953,308.56700849574776 M454.4649246493953,308.56700849574776 L456.3139354727702,308.4150483313192 M456.3139354727702,308.4150483313192 L458.167915245366,308.52376776576835 M458.167915245366,308.52376776576835 L459.9192377551184,308.8868569503948 M459.9192377551184,308.8868569503948 L461.46617576715664,309.48325909841947 M461.46617576715664,309.48325909841947 L462.71886970642294,310.27835804192864 M462.71886970642294,310.27835804192864 L463.6045265537346,311.22600495019066 M463.6045265537346,311.22600495019066 L464.07160305600985,312.27118110188337 M464.07160305600985,312.27118110188337 L464.09286980046676,313.3531668579778 M464.09286980046676,313.3531668579778 L463.6669978636286,314.4090863962111 M463.6669978636286,314.4090863962111 L462.81862949146074,315.37755339629405 M462.81862949146074,315.37755339629405 L461.5970389844658,316.2022261516137 M461.5970389844658,316.2022261516137 L460.0732041124193,316.8351197979565 M460.0732041124193,316.8351197979565 L458.3356732917933,317.2394214024921 M253.62608621360516,357.4739828666553 L240.7529301448641,359.4718058644203 M240.7529301448641,359.4718058644203 L240.65461263289882,353.12431614657373 M253.62608621360516,357.4739828666553 L253.53066905459502,351.1269308283738 M262.84646126802136,362.9334524491244 L253.62608621360516,357.4739828666553 M262.84646126802136,362.9334524491244 L262.7530760572853,356.5852046556858 M259.19346824730104,370.3979589166123 L262.84646126802136,362.9334524491244 M259.19346824730104,370.3979589166123 L259.0992144891742,364.04807772707863 M246.3094693808039,372.3993900517344 L259.19346824730104,370.3979589166123 M246.3094693808039,372.3993900517344 L246.21231037967397,366.0490712022231 M237.08931049748372,366.9327041989874 L246.3094693808039,372.3993900517344 M237.08931049748372,366.9327041989874 L236.990119693609,360.5835810654587 M240.7529301448641,359.4718058644203 L237.08931049748372,366.9327041989874 M459.9357559506534,305.4971482833464 L447.13802866533655,307.48049013736886 M447.13802866533655,307.48049013736886 L447.0861856702654,301.14443127984964 M459.9357559506534,305.4971482833464 L459.8867794649133,299.1615271612536 M469.2010200323448,310.9170471401413 L459.9357559506534,305.4971482833464 M469.2010200323448,310.9170471401413 L469.1540957936253,304.58023010551574 M447.13802866533655,307.48049013736886 L443.59483860729694,314.88729898312266 M443.59483860729694,314.88729898312266 L443.5421765462183,308.54960648742747 M465.6684443371019,318.32742038345793 L469.2010200323448,310.9170471401413 M465.6684443371019,318.32742038345793 L465.6207057629592,311.9889697223133 M443.59483860729694,314.88729898312266 L452.8599913074456,320.31433576695764 M452.8599913074456,320.31433576695764 L452.80938141867637,313.9754473800311 M452.8599913074456,320.31433576695764 L465.6684443371019,318.32742038345793" stroke="black"  stroke-width="4"  fill="red"/>
<path d="M185.44361366910303,531.2582012903441 L185.7237032249326,547.2178189504463 M185.44361366910303,531.2582012903441 L189.6053930973207,536.8380052066262 M189.6053930973207,536.8380052066262 L192.3278844655713,542.7371211650587 M192.3278844655713,542.7371211650587 L193.55092103668272,548.8295268676345 M193.55092103668272,548.8295268676345 L193.24645360860734,554.9846570392402 M193.24645360860734,554.9846570392402 L191.4190738358198,561.0703361789753 M191.4190738358198,561.0703361789753 L188.10614566991757,566.9555602876109 M188.10614566991757,566.9555602876109 L183.3773276819921,572.5132638531828 M183.3773276819921,572.5132638531828 L177.33291469339042,577.6232507072544 M177.33291469339042,577.6232507072544 L170.10207396693554,582.1747040147005 M170.10207396693554,582.1747040147005 L161.83995993051155,586.0687431715256 M161.83995993051155,586.0687431715256 L152.7243831560734,589.2206562950757 M152.7243831560734,589.2206562950757 L142.9520990785743,591.5617337127386 M142.9520990785743,591.5617337127386 L132.73433492000402,593.0409240623858 M132.73433492000402,593.0409240623858 L122.29227645018875,593.6259062470921 M122.29227645018875,593.6259062470921 L111.85206378730317,593.3039094561135 M111.85206378730317,593.3039094561135 L101.6398249281666,592.0819643229514 M101.6398249281666,592.0819643229514 L91.87658035176321,589.9867816626685 M91.87658035176321,589.9867816626685 L82.77352583610741,587.0640372733416 M82.77352583610741,587.0640372733416 L74.52711516471982,583.3774842641131 M74.52711516471982,583.3774842641131 L67.31496607467443,579.0073704897233 M67.31496607467443,579.0073704897233 L61.29190193379975,574.0486814197193 M61.29190193379975,574.0486814197193 L56.58663347287819,568.6090031305209 M56.58663347287819,568.6090031305209 L53.29915217444676,562.8060605988912 M53.29915217444676,562.8060605988912 L51.49845218470631,556.765231264382 M51.49845218470631,556.765231264382 L51.221449616520374,550.6166439536706 M51.221449616520374,550.6166439536706 L52.472165238012394,544.4924522032264 M52.472165238012394,544.4924522032264 L55.221871830392615,538.5239448078569 M55.221871830392615,538.5239448078569 L59.40979981838666,532.8387768275538 M59.40979981838666,532.8387768275538 L64.94472238055903,527.5582142124408 M64.94472238055903,527.5582142124408 L71.70686640285493,522.7946804979683 M71.70686640285493,522.7946804979683 L79.55072112638459,518.6493325630572 M79.55072112638459,518.6493325630572 L88.30805023288656,515.2100654043135 M88.30805023288656,515.2100654043135 L97.79150548776681,512.5497141206317 M97.79150548776681,512.5497141206317 L107.79873549137665,510.7244804079244 M107.79873549137665,510.7244804079244 L118.11637171750982,509.77296649938773 M118.11637171750982,509.77296649938773 L128.52473048439833,509.71522914651246 M128.52473048439833,509.71522914651246 L138.80224427668247,510.5524752455059 M138.80224427668247,510.5524752455059 L148.72995884046136,512.2670750405658 M148.72995884046136,512.2670750405658 L158.0963493529326,514.8227785138657 M158.0963493529326,514.8227785138657 L158.39161866615103,530.7736217770497 M158.39161866615103,530.7736217770497 L149.0304828848443,528.2165519866722 M149.0304828848443,528.2165519866722 L139.10835693954238,526.5010352543063 M139.10835693954238,526.5010352543063 L128.83664747627506,525.6633413273956 M128.83664747627506,525.6633413273956 L118.43418612579819,525.7211095647077 M118.43418612579819,525.7211095647077 L108.12241594788605,526.6731324124013 M108.12241594788605,526.6731324124013 L98.1208967689027,528.4993421949548 M98.1208967689027,528.4993421949548 L88.64287626681585,531.1611156721881 M88.64287626681585,531.1611156721881 L79.89059058927228,534.6022206024414 M79.89059058927228,534.6022206024414 L72.05128052163576,538.749782371558 M72.05128052163576,538.749782371558 L65.29308505485506,543.5158584019365 M65.29308505485506,543.5158584019365 L59.76142981963528,548.7992371959771 M59.76142981963528,548.7992371959771 L55.5760167763018,554.4874346938301 M55.5760167763018,554.4874346938301 L52.828017270424084,560.4591198687975 M52.828017270424084,560.4591198687975 L51.57816230289478,566.5865693885285 M51.57816230289478,566.5865693885285 L51.855158487681706,572.7384244903736 M51.855158487681706,572.7384244903736 L53.65498300380136,578.7824614619858 M53.65498300380136,578.7824614619858 L56.94073650908172,584.5884826227802 M56.94073650908172,584.5884826227802 L61.64346016389163,590.0310444237631 M61.64346016389163,590.0310444237631 L67.66321587821119,594.9923600191942 M67.66321587821119,594.9923600191942 L74.87136323333101,599.364786964951 M74.87136323333101,599.364786964951 L83.11316470738768,603.0532901626162 M83.11316470738768,603.0532901626162 L92.21110210932585,605.9775799286709 M92.21110210932585,605.9775799286709 L101.968832658535,608.0738699875598 M101.968832658535,608.0738699875598 L112.1752806788869,609.2964608151312 M112.1752806788869,609.2964608151312 L122.60955202167656,609.6186277346453 M122.60955202167656,609.6186277346453 L133.0456484685763,609.0333364657954 M133.0456484685763,609.0333364657954 L143.25756010927938,607.553364444077 M143.25756010927938,607.553364444077 L153.02422885847525,605.211049543387 M153.02422885847525,605.211049543387 L162.1345496804359,602.0574696546153 M162.1345496804359,602.0574696546153 L170.39188114872957,598.1613702138486 M170.39188114872957,598.1613702138486 L177.61851588231923,593.6075072879779 M177.61851588231923,593.6075072879779 L183.65938965094733,588.4948131845636 M183.65938965094733,588.4948131845636 L188.3854104649293,582.9341628492384 M188.3854104649293,582.9341628492384 L191.6963422029409,577.0458156774952 M191.6963422029409,577.0458156774952 L193.52256744202384,570.9569042476403 M193.52256744202384,570.9569042476403 L193.82674492424303,564.7985019475196 M193.82674492424303,564.7985019475196 L192.60428702176281,558.7028545390151 M192.60428702176281,558.7028545390151 L189.88322843497306,552.80059695162 M189.88322843497306,552.80059695162 L185.7237032249326,547.2178189504463 M133.5156830249523,577.3936621814636 L185.7237032249326,547.2178189504463 M133.20531321996214,561.4179981166641 L185.44361366910303,531.2582012903441 M133.5156830249523,577.3936621814636 L133.20531321996214,561.4179981166641 M105.86056680054446,544.9141403034049 L133.20531321996214,561.4179981166641 M158.0963493529326,514.8227785138657 L105.86056680054446,544.9141403034049 M59.96832378128016,537.459525477491 L56.1612513204268,545.1121825871921 M73.0356945815459,535.4103705073597 L59.96832378128016,537.459525477491 M82.30716681411462,541.0101273242179 L73.0356945815459,535.4103705073597 M78.51095469648033,548.6665338264501 L82.30716681411462,541.0101273242179 M65.4324082416914,550.7194381998194 L78.51095469648033,548.6665338264501 M56.1612513204268,545.1121825871921 L65.4324082416914,550.7194381998194 M131.7624523393862,590.8362774693119 L144.86773744588442,588.7720087012711 M122.43997879027631,585.1979852285756 L131.7624523393862,590.8362774693119 M144.86773744588442,588.7720087012711 L148.6393269737859,581.0732323752434 M126.22250598817777,577.5029894574322 L122.43997879027631,585.1979852285756 M148.6393269737859,581.0732323752434 L139.3165708368565,575.4425012550773 M139.3165708368565,575.4425012550773 L126.22250598817777,577.5029894574322 M158.39161866615103,530.7736217770497 L106.18611207788518,560.8810323805176 M106.18611207788518,560.8810323805176 L105.86056680054446,544.9141403034049 M106.18611207788518,560.8810323805176 L133.5156830249523,577.3936621814636 M77.12927684936272,560.2279704710104 L77.44161001437726,559.1202145563371 M77.44161001437726,559.1202145563371 L77.29715242116424,558.0072140041533 M77.29715242116424,558.0072140041533 L76.70442510009809,556.9536247394919 M76.70442510009809,556.9536247394919 L75.69796866959331,556.0206314714678 M75.69796866959331,556.0206314714678 L74.33629263447779,555.2624117383763 M74.33629263447779,555.2624117383763 L72.69854765271873,554.7229607229621 M72.69854765271873,554.7229607229621 L70.87984670251933,554.4335873711359 M70.87984670251933,554.4335873711359 L68.98577231462139,554.4110933491131 M68.98577231462139,554.4110933491131 L67.1263926962647,554.6567256218103 M67.1263926962647,554.6567256218103 L65.40958026711326,555.1562950211579 M65.40958026711326,555.1562950211579 L63.935078990476654,555.8807927172968 M63.935078990476654,555.8807927172968 L62.78855299513407,556.7881805948846 M62.78855299513407,556.7881805948846 L62.036686562724526,557.8257710907326 M62.036686562724526,557.8257710907326 L61.72320356899667,558.9333279383804 M61.72320356899667,558.9333279383804 L61.8664765104366,560.0464704793842 M61.8664765104366,560.0464704793842 L62.458253135682526,561.1005086826813 M62.458253135682526,561.1005086826813 L63.464213206250406,562.0341565716858 M63.464213206250406,562.0341565716858 L64.82595374398011,562.7930822766945 M64.82595374398011,562.7930822766945 L66.46431650063346,563.3331332530329 M66.46431650063346,563.3331332530329 L68.28404438619691,563.6228615282117 M68.28404438619691,563.6228615282117 L70.17932222422087,563.6453856812772 M70.17932222422087,563.6453856812772 L72.03979885591394,563.399447553785 M72.03979885591394,563.399447553785 L73.75736040490284,562.8993122432228 M73.75736040490284,562.8993122432228 L75.23208407240662,562.1741138922813 M75.23208407240662,562.1741138922813 L76.37825478110796,561.2660511220747 M76.37825478110796,561.2660511220747 L77.12927684936272,560.2279704710104 M133.97859471620933,594.6165694215167 L132.19965314712465,595.0363236584354 M132.19965314712465,595.0363236584354 L130.63271652781418,595.6935315843647 M130.63271652781418,595.6935315843647 L129.36884149947537,596.550048383972 M129.36884149947537,596.550048383972 L128.48148173370902,597.5561622326605 M128.48148173370902,597.5561622326605 L128.02230167766754,598.6534268173683 M128.02230167766754,598.6534268173683 L128.01798566618913,599.7781598960278 M128.01798566618913,599.7781598960278 L128.46898071778384,600.86493460264 M128.46898071778384,600.86493460264 L129.34914450493227,601.8505776268266 M129.34914450493227,601.8505776268266 L130.6073636954203,602.6777617663732 M130.6073636954203,602.6777617663732 L132.17054983255304,603.2983456269584 M132.17054983255304,603.2983456269584 L133.94779056017296,603.6762165245916 M133.94779056017296,603.6762165245916 L135.83573634528284,603.7893697489052 M135.83573634528284,603.7893697489052 L137.7245898847159,603.6312012927511 M137.7245898847159,603.6312012927511 L139.50442496950228,603.2109528289661 M139.50442496950228,603.2109528289661 L141.07176736524463,602.5530644111842 M141.07176736524463,602.5530644111842 L142.33547470697346,601.6958411399976 M142.33547470697346,601.6958411399976 L143.2221317400464,600.6891566792422 M143.2221317400464,600.6891566792422 L143.68022778133354,599.5915836849249 M143.68022778133354,599.5915836849249 L143.68333663379076,598.4668810079592 M143.68333663379076,598.4668810079592 L143.2312806337053,597.3804641754815 M143.2312806337053,597.3804641754815 L142.3504477597079,596.3954260899336 M142.3504477597079,596.3954260899336 L141.0921019984268,595.5689537929431 M141.0921019984268,595.5689537929431 L139.52936805948553,594.949029977591 M139.52936805948553,594.949029977591 L137.75304744558213,594.5716117502396 M137.75304744558213,594.5716117502396 L135.8662815283435,594.4586016951824 M135.8662815283435,594.4586016951824 L133.97859471620933,594.6165694215167 M60.108941680327234,543.8468697749755 L56.30280847827299,551.5011584261288 M56.30280847827299,551.5011584261288 L56.1612513204268,545.1121825871921 M60.108941680327234,543.8468697749755 L59.96832378128016,537.459525477491 M73.17332537461277,541.7972776149007 L60.108941680327234,543.8468697749755 M73.17332537461277,541.7972776149007 L73.0356945815459,535.4103705073597 M82.44274464915458,547.3982288358525 L73.17332537461277,541.7972776149007 M82.44274464915458,547.3982288358525 L82.30716681411462,541.0101273242179 M78.64746689191338,555.056266826682 L82.44274464915458,547.3982288358525 M78.64746689191338,555.056266826682 L78.51095469648033,548.6665338264501 M65.57191265637073,557.1096083371395 L78.64746689191338,555.056266826682 M65.57191265637073,557.1096083371395 L65.4324082416914,550.7194381998194 M56.30280847827299,551.5011584261288 L65.57191265637073,557.1096083371395 M131.88722300889867,597.2349634199021 L144.98950362344993,595.1702576892302 M144.98950362344993,595.1702576892302 L144.86773744588442,588.7720087012711 M131.88722300889867,597.2349634199021 L131.7624523393862,590.8362774693119 M122.56682527345953,591.5954773546332 L131.88722300889867,597.2349634199021 M122.56682527345953,591.5954773546332 L122.43997879027631,585.1979852285756 M144.98950362344993,595.1702576892302 L148.76016961949483,587.4698505153416 M148.76016961949483,587.4698505153416 L148.6393269737859,581.0732323752434 M126.34842398861497,583.8988506752162 L122.56682527345953,591.5954773546332 M126.34842398861497,583.8988506752162 L126.22250598817777,577.5029894574322 M148.76016961949483,587.4698505153416 L139.43948948932973,581.8379254498168 M139.43948948932973,581.8379254498168 L139.3165708368565,575.4425012550773 M139.43948948932973,581.8379254498168 L126.34842398861497,583.8988506752162 M77.12927684936272,560.2279704710104 L76.92409980685278,550.6502203064654 M76.92409980685278,550.6502203064654 L76.17280708820795,551.6879699046375 M76.17280708820795,551.6879699046375 L75.02623284352887,552.5957431272388 M75.02623284352887,552.5957431272388 L73.5509961919173,553.3207102670578 M73.5509961919173,553.3207102670578 L71.83284203391372,553.8206861365243 M71.83284203391372,553.8206861365243 L69.97172766689022,554.0665458642499 M69.97172766689022,554.0665458642499 L68.075804058252,554.0440288912803 M68.075804058252,554.0440288912803 L66.25546000209926,553.7543929758257 M66.25546000209926,553.7543929758257 L64.6165465339858,553.2145141677206 M64.6165465339858,553.2145141677206 L63.25435278049531,552.45583043133 M63.25435278049531,552.45583043133 L62.248063336803,551.52248025477 M62.248063336803,551.52248025477 L61.65610028705834,550.4687782019485 M61.65610028705834,550.4687782019485 L61.51279465147911,549.3559907173831 M61.51279465147911,549.3559907173831 L61.82640052167949,548.2487872022218 M61.82640052167949,548.2487872022218 L62.578538173944935,547.2115277704332 M62.578538173944935,547.2115277704332 L63.72546793691413,546.3044294545534 M63.72546793691413,546.3044294545534 L65.20048203602636,545.5801629847341 M65.20048203602636,545.5801629847341 L66.91788655630802,545.0807530392929 M66.91788655630802,545.0807530392929 L68.77790315690493,544.8351991724605 M68.77790315690493,544.8351991724605 L70.67262249635178,544.8576860142697 M70.67262249635178,544.8576860142697 L72.49193892216721,545.1469669986732 M72.49193892216721,545.1469669986732 L74.13023420284276,545.6862458328409 M74.13023420284276,545.6862458328409 L75.49236341896835,546.4442235814658 M75.49236341896835,546.4442235814658 L76.4991495712195,547.3769191233828 M76.4991495712195,547.3769191233828 L77.09206397129316,548.430172227831 M77.09206397129316,548.430172227831 L77.23655506824628,549.5428177204967 M77.23655506824628,549.5428177204967 L76.92409980685278,550.6502203064654 M133.97859471620933,594.6165694215167 L133.79235271836853,585.027879342617 M133.79235271836853,585.027879342617 L135.68068642370014,584.8699617430929 M135.68068642370014,584.8699617430929 L137.56809546138777,584.9829359373288 M137.56809546138777,584.9829359373288 L139.34501812522268,585.3602344050989 M139.34501812522268,585.3602344050989 L140.90827811249937,585.9799615252825 M140.90827811249937,585.9799615252825 L142.16704336721546,586.8061716195349 M142.16704336721546,586.8061716195349 L143.04816479807255,587.7908972383684 M143.04816479807255,587.7908972383684 L143.50036160328807,588.8769694982914 M143.50036160328807,588.8769694982914 L143.49723754991032,590.0013155181468 M143.49723754991032,590.0013155181468 L143.03897114934716,591.0985405157356 M143.03897114934716,591.0985405157356 L142.15199840011394,592.1049058465991 M142.15199840011394,592.1049058465991 L140.88784830746704,592.9618574061976 M140.88784830746704,592.9618574061976 L139.31996184372025,593.6195373183706 M139.31996184372025,593.6195373183706 L137.53951302442204,594.0396526027804 M137.53951302442204,594.0396526027804 L135.6500117907908,594.1977709365044 M135.6500117907908,594.1977709365044 L133.76142208052966,594.0846535695026 M133.76142208052966,594.0846535695026 L131.9835786797866,593.7069024203543 M131.9835786797866,593.7069024203543 L130.4198661945219,593.0865152392983 M130.4198661945219,593.0865152392983 L129.16122760530868,592.2595932844998 M129.16122760530868,592.2595932844998 L128.2807757263904,591.2742627121987 M128.2807757263904,591.2742627121987 L127.82964059947034,590.1878325693687 M127.82964059947034,590.1878325693687 L127.83397263833501,589.0634561476144 M127.83397263833501,589.0634561476144 L128.29332378982997,587.966539566655 M128.29332378982997,587.966539566655 L129.18099974574045,586.9607448623863 M129.18099974574045,586.9607448623863 L130.44531763060996,586.1044997916846 M130.44531763060996,586.1044997916846 L132.0127980309702,585.4475003875052 M132.0127980309702,585.4475003875052 L133.79235271836853,585.027879342617" stroke="black"  stroke-width="4"  fill="red"/>
<path d="M665.4815484839887,238.33005159357663 L569.9509909348498,293.4234298456825 M569.8900916614732,277.6015888045523 L569.9509909348498,293.4234298456825 M665.4739572330368,222.53878435107362 L569.8900916614732,277.6015888045523 M665.4815484839887,238.33005159357663 L665.4739572330368,222.53878435107362 M692.8252428523618,254.1169408977957 L665.4815484839887,238.33005159357663 M610.4278455496171,301.7420171624652 L692.8252428523618,254.1169408977957 M569.9509909348498,293.4234298456825 L578.7401625277208,293.6161874660998 M578.7401625277208,293.6161874660998 L587.3740670757951,294.5743211223888 M587.3740670757951,294.5743211223888 L595.6567411683083,296.2762448527732 M595.6567411683083,296.2762448527732 L603.4000503278078,298.68358150106 M603.4000503278078,298.68358150106 L610.4278455496171,301.7420171624652 M646.2621513676572,265.2044945025141 L644.8014730761373,264.54221499739 M644.8014730761373,264.54221499739 L643.108713283829,264.1015185448497 M643.108713283829,264.1015185448497 L641.2821892489062,263.907970848091 M641.2821892489062,263.907970848091 L639.4279589095354,263.9728003518389 M639.4279589095354,263.9728003518389 L637.6536812376999,264.2922485761623 M637.6536812376999,264.2922485761623 L636.0623945665961,264.8477802485044 M636.0623945665961,264.8477802485044 L634.7465289572822,265.6071622451339 M634.7465289572822,265.6071622451339 L633.7825605317059,266.5263174039496 M633.7825605317059,266.5263174039496 L633.2265541713059,267.5518804701317 M633.2265541713059,267.5518804701317 L633.110908457777,268.62427896659113 M633.110908457777,268.62427896659113 L633.4424383307509,269.6811983060179 M633.4424383307509,269.6811983060179 L634.2019682340058,270.66119439538295 M634.2019682340058,270.66119439538295 L635.3454283634443,271.50726746766503 M635.3454283634443,271.50726746766503 L636.8063813928654,272.17019562733674 M636.8063813928654,272.17019562733674 L638.4999059612808,272.61139213348247 M638.4999059612808,272.61139213348247 L640.3275096050124,272.8051767299397 M640.3275096050124,272.8051767299397 L642.1828870616096,272.74026670080855 M642.1828870616096,272.74026670080855 L643.9581165702978,272.4204389707527 M643.9581165702978,272.4204389707527 L645.5499417411701,271.8643157554269 M645.5499417411701,271.8643157554269 L646.8658091504021,271.1042656920837 M646.8658091504021,271.1042656920837 L647.8292422637371,270.1845189902709 M647.8292422637371,270.1845189902709 L648.3842988323274,269.15857641900357 M648.3842988323274,269.15857641900357 L648.4987978626586,268.08609739622716 M648.4987978626586,268.08609739622716 L648.1661871044007,267.02941495624316 M648.1661871044007,267.02941495624316 L647.4058897304307,266.04991892218254 M647.4058897304307,266.04991892218254 L646.2621513676572,265.2044945025141 M610.389498333889,285.9155803881062 L610.4278455496171,301.7420171624652 M569.8900916614732,277.6015888045523 L578.6841643246491,277.7942398717727 M578.6841643246491,277.7942398717727 L587.3228807294831,278.7518439308778 M587.3228807294831,278.7518439308778 L595.6101689810853,280.45282711982463 M595.6101689810853,280.45282711982463 L603.3577904051474,282.8588337781008 M603.3577904051474,282.8588337781008 L610.389498333889,285.9155803881062 M692.8328509962189,238.31688853561485 L665.4739572330368,222.53878435107362 M610.389498333889,285.9155803881062 L692.8328509962189,238.31688853561485 M653.5138106842978,250.57780719268385 L650.0891746608334,257.9305541094426 M644.2118031714483,245.20004187431925 L653.5138106842978,250.57780719268385 M631.4851746699455,247.16796860050488 L644.2118031714483,245.20004187431925 M628.049967105104,254.51718692505966 L631.4851746699455,247.16796860050488 M637.3519555711498,259.90200942938304 L628.049967105104,254.51718692505966 M650.0891746608334,257.9305541094426 L637.3519555711498,259.90200942938304 M692.8252428523618,254.1169408977957 L692.8328509962189,238.31688853561485 M646.2621513676572,265.2044945025141 L646.251171839968,255.72287907690327 M646.251171839968,255.72287907690327 L647.3952914558024,256.56802217635516 M647.3952914558024,256.56802217635516 L648.1558419883208,257.5471923189745 M648.1558419883208,257.5471923189745 L648.4885630560369,258.60352323704467 M648.4885630560369,258.60352323704467 L648.3740250133487,259.67564553649936 M648.3740250133487,259.67564553649936 L647.8187823110218,260.70124691370506 M647.8187823110218,260.70124691370506 L646.8550267071879,261.62068778062167 M646.8550267071879,261.62068778062167 L645.5387191610286,262.3804851414734 M645.5387191610286,262.3804851414734 L643.9463617870713,262.93642347335896 M643.9463617870713,262.93642347335896 L642.1705389684068,263.25614488309907 M642.1705389684068,263.25614488309907 L640.3145416320899,263.32103333477846 M640.3145416320899,263.32103333477846 L638.4863276282363,263.12731315696146 M638.4863276282363,263.12731315696146 L636.7922377526409,262.6862633216715 M636.7922377526409,262.6862633216715 L635.3307973680998,262.023555562242 M635.3307973680998,262.023555562242 L634.1869561720555,261.17776380938176 M634.1869561720555,261.17776380938176 L633.4271736234034,260.19809361084555 M633.4271736234034,260.19809361084555 L633.0955341632591,259.1415257930425 M633.0955341632591,259.1415257930425 L633.2112196551027,258.0694840200035 M633.2112196551027,258.0694840200035 L633.7674127833964,257.0442621483478 M633.7674127833964,257.0442621483478 L634.7317040565487,256.1254128251528 M634.7317040565487,256.1254128251528 L636.0480098009862,255.36628353183323 M636.0480098009862,255.36628353183323 L637.6398283149028,254.81093674365593 M637.6398283149028,254.81093674365593 L639.4146986605081,254.49159484011312 M639.4146986605081,254.49159484011312 L641.2695481132059,254.42678691391546 M641.2695481132059,254.42678691391546 L643.0966817872425,254.62027019174394 M643.0966817872425,254.62027019174394 L644.7900063762802,255.0608199728158 M644.7900063762802,255.0608199728158 L646.251171839968,255.72287907690327 M650.0956463579105,264.2570453861791 L653.5195166709395,256.90266474155777 M653.5195166709395,256.90266474155777 L653.5138106842978,250.57780719268385 M650.0956463579105,264.2570453861791 L650.0891746608334,257.9305541094426 M653.5195166709395,256.90266474155777 L644.2195769540178,251.523703449582 M644.2195769540178,251.523703449582 L644.2118031714483,245.20004187431925 M644.2195769540178,251.523703449582 L631.4957819488397,253.49206793265057 M631.4957819488397,253.49206793265057 L631.4851746699455,247.16796860050488 M631.4957819488397,253.49206793265057 L628.0613447991452,260.84291998664156 M628.0613447991452,260.84291998664156 L628.049967105104,254.51718692505966 M628.0613447991452,260.84291998664156 L637.3612654819824,266.22893846142847 M637.3612654819824,266.22893846142847 L637.3519555711498,259.90200942938304 M637.3612654819824,266.22893846142847 L650.0956463579105,264.2570453861791" stroke="black"  stroke-width="4"  fill="red"/>
<path d="M513.6189342174746,325.91066103192395 L347.0724369013048,421.95960504110474 M346.9603388188374,412.42640175296106 L347.0724369013048,421.95960504110474 M346.9603388188374,412.42640175296106 L290.4388802529337,445.00111250551697 M290.57034901408554,454.54489481504015 L290.4388802529337,445.00111250551697 M290.57034901408554,454.54489481504015 L106.18611207788518,560.8810323805176 M106.18611207788518,560.8810323805176 L105.86056680054446,544.9141403034049 M513.5264073696358,310.0709026147941 L105.86056680054446,544.9141403034049 M513.5264073696358,310.0709026147941 L513.6189342174746,325.91066103192395 M133.5156830249523,577.3936621814636 L527.7539518977273,349.5269062385338 M106.18611207788518,560.8810323805176 L133.5156830249523,577.3936621814636 M290.57034901408554,454.54489481504015 L353.70163633657717,448.7019375212542 M353.70163633657717,448.7019375212542 L347.0724369013048,421.95960504110474 M527.7539518977273,349.5269062385338 L522.5033853320797,345.41791099244887 M522.5033853320797,345.41791099244887 L518.385613912043,340.89455489193585 M518.385613912043,340.89455489193585 L515.4939310864736,336.0608659475614 M515.4939310864736,336.0608659475614 L513.8932852356954,331.0278045528175 M513.8932852356954,331.0278045528175 L513.6189342174746,325.91066103192395 M156.99770474294615,547.6814544662044 L158.46431102771433,548.3703491736647 M158.46431102771433,548.3703491736647 L160.1755918117126,548.8288293639275 M160.1755918117126,548.8288293639275 L162.03202460987262,549.0302060619406 M162.03202460987262,549.0302060619406 L163.92562327131458,548.9627555877305 M163.92562327131458,548.9627555877305 L165.74626498662136,548.6303888753088 M165.74626498662136,548.6303888753088 L167.38800679629298,548.0524836463411 M167.38800679629298,548.0524836463411 L168.755433418824,547.2626527836112 M168.755433418824,547.2626527836112 L169.7690371503305,546.3068795475165 M169.7690371503305,546.3068795475165 L170.37000271199338,545.2407367848618 M170.37000271199338,545.2407367848618 L170.52344005848343,544.1262469928171 M170.52344005848343,544.1262469928171 L170.2205618898065,543.0281710867905 M170.2205618898065,543.0281710867905 L169.47906522235223,542.0103047863674 M169.47906522235223,542.0103047863674 L168.34211008509317,541.1317589881196 M168.34211008509317,541.1317589881196 L166.87576666715978,540.443551412997 M166.87576666715978,540.443551412997 L165.16526316526227,539.9856009400288 M165.16526316526227,539.9856009400288 L163.30994399764955,539.7844751953035 M163.30994399764955,539.7844751953035 L161.4175401973984,539.8518403704174 M161.4175401973984,539.8518403704174 L159.5979008594274,540.1838050530605 M159.5979008594274,540.1838050530605 L157.9567392933355,540.7610836522879 M157.9567392933355,540.7610836522879 L156.589337867347,541.5502068102389 M156.589337867347,541.5502068102389 L155.57519851253986,542.5053534105512 M155.57519851253986,542.5053534105512 L154.9732592006054,543.5710941469255 M154.9732592006054,543.5710941469255 L154.81863306711563,544.6854986336197 M154.81863306711563,544.6854986336197 L155.12037973579618,545.7838254936183 M155.12037973579618,545.7838254936183 L155.86106140147132,546.802221520662 M155.86106140147132,546.802221520662 L156.99770474294615,547.6814544662044 M353.59157175538405,439.1600484990689 L346.9603388188374,412.42640175296106 M353.70163633657717,448.7019375212542 L353.59157175538405,439.1600484990689 M290.4388802529337,445.00111250551697 L353.59157175538405,439.1600484990689 M133.5156830249523,577.3936621814636 L133.20531321996214,561.4179981166641 M105.86056680054446,544.9141403034049 L133.20531321996214,561.4179981166641 M527.6691863419837,333.67417478408254 L522.4157051357297,329.5674335851814 M522.4157051357297,329.5674335851814 L518.2956572687062,325.0465603621349 M518.2956572687062,325.0465603621349 L515.4023873082039,320.21552640594774 M515.4023873082039,320.21552640594774 L513.8008786439948,315.1852314499721 M513.8008786439948,315.1852314499721 L513.5264073696358,310.0709026147941 M133.20531321996214,561.4179981166641 L527.6691863419837,333.67417478408254 M149.32959696360126,530.4949353097669 L153.08373692892195,522.8576875132629 M158.6273823899569,536.0908939830872 L149.32959696360126,530.4949353097669 M171.67957873510235,534.0421262076819 L158.6273823899569,536.0908939830872 M175.42285620049324,526.4011403394461 L171.67957873510235,534.0421262076819 M166.12480415333823,520.8126578196568 L175.42285620049324,526.4011403394461 M153.08373692892195,522.8576875132629 L166.12480415333823,520.8126578196568 M527.6691863419837,333.67417478408254 L527.7539518977273,349.5269062385338 M156.99770474294615,547.6814544662044 L156.8199019609583,538.1077094927608 M156.8199019609583,538.1077094927608 L155.68288236904402,537.2287574993685 M155.68288236904402,537.2287574993685 L154.94196102910044,536.2106869383107 M154.94196102910044,536.2106869383107 L154.640125142334,535.1127111436854 M154.640125142334,535.1127111436854 L154.79481763214406,533.9986629192133 M154.79481763214406,533.9986629192133 L155.39697495914672,532.9332629423344 M155.39697495914672,532.9332629423344 L156.41147124482396,531.9784217854806 M156.41147124482396,531.9784217854806 L157.7793477594264,531.1895510111435 M157.7793477594264,531.1895510111435 L159.42107495128448,530.6124570602329 M159.42107495128448,530.6124570602329 L161.24133763059712,530.2805985668854 M161.24133763059712,530.2805985668854 L163.13438630344695,530.2132549412626 M163.13438630344695,530.2132549412626 L164.9903344767316,530.4143163483692 M164.9903344767316,530.4143163483692 L166.7014146257508,530.8721203357709 M166.7014146257508,530.8721203357709 L168.16824886340106,531.5601077910167 M168.16824886340106,531.5601077910167 L169.3055804717687,532.4383726229175 M169.3055804717687,532.4383726229175 L170.04731737493762,533.45591344641 M170.04731737493762,533.45591344641 L170.35028553530213,534.5536382818784 M170.35028553530213,534.5536382818784 L170.19678264102765,535.6677718134636 M170.19678264102765,535.6677718134636 L169.5955997225497,536.733573824929 M169.5955997225497,536.733573824929 L168.58163941733505,537.6890416305121 M168.58163941733505,537.6890416305121 L167.21373768044728,538.4786201242495 M167.21373768044728,538.4786201242495 L165.57142984225982,539.0563407178471 M165.57142984225982,539.0563407178471 L163.7501640981103,539.3886012492796 M163.7501640981103,539.3886012492796 L161.85591974932785,539.4560301757607 M161.85591974932785,539.4560301757607 L159.99885719015123,539.2547178101814 M159.99885719015123,539.2547178101814 L158.2869992361227,538.7963840945408 M158.2869992361227,538.7963840945408 L156.8199019609583,538.1077094927608 M153.20308762503623,529.2419136176442 L149.44986274615323,536.8807931663376 M149.44986274615323,536.8807931663376 L149.32959696360126,530.4949353097669 M153.20308762503623,529.2419136176442 L153.08373692892195,522.8576875132629 M149.44986274615323,536.8807931663376 L158.74558323177206,542.4779462958099 M158.74558323177206,542.4779462958099 L158.6273823899569,536.0908939830872 M158.74558323177206,542.4779462958099 L171.79479936527463,540.4287413252251 M171.79479936527463,540.4287413252251 L171.67957873510235,534.0421262076819 M171.79479936527463,540.4287413252251 L175.53716664420224,532.7861237549282 M175.53716664420224,532.7861237549282 L175.42285620049324,526.4011403394461 M175.53716664420224,532.7861237549282 L166.24117971928266,527.1964466787296 M166.24117971928266,527.1964466787296 L166.12480415333823,520.8126578196568 M166.24117971928266,527.1964466787296 L153.20308762503623,529.2419136176442" stroke="black"  stroke-width="4"  fill="red"/>
<path d="M613.257400368695,303.28013906512365 L613.2206281843949,287.4528531241516 M530.3990869506492,351.18227814039784 L530.3157927893508,335.32863898150055 M613.257400368695,303.28013906512365 L619.1754776186267,307.30940064347254 M619.1754776186267,307.30940064347254 L623.9342219611453,311.83010279076774 M623.9342219611453,311.83010279076774 L627.4157278252089,316.7317535347072 M627.4157278252089,316.7317535347072 L629.5331610393317,321.89430702926626 M629.5331610393317,321.89430702926626 L630.2329695819358,327.1910626598549 M630.2329695819358,327.1910626598549 L629.4963604645295,332.4917495652167 M629.4963604645295,332.4917495652167 L627.339883961174,337.6657076576 M627.339883961174,337.6657076576 L623.8152578614942,342.5851215030219 M623.8152578614942,342.5851215030219 L619.0081262838328,347.1282064840342 M619.0081262838328,347.1282064840342 L613.036149865576,351.18227814039784 M613.036149865576,351.18227814039784 L606.04612196627,354.64660045766294 M606.04612196627,354.64660045766294 L598.2104114356409,357.43496306494524 M598.2104114356409,357.43496306494524 L589.7226818096267,359.4778749429033 M589.7226818096267,359.4778749429033 L580.793063127567,360.72439054122174 M580.793063127567,360.72439054122174 L571.6428548454514,361.1433773007143 M571.6428548454514,361.1433773007143 L562.4989386845062,360.724385951464 M562.4989386845062,360.724385951464 L553.5880315304495,359.4778764725562 M553.5880315304495,359.4778764725562 L545.1309735567904,357.43496153572863 M545.1309735567904,357.43496153572863 L537.337108863951,354.64660504352616 M537.337108863951,354.64660504352616 L530.3990869506492,351.18227814039784 M613.2206281843949,287.4528531241516 L619.1419988426362,291.47989110419013 M619.1419988426362,291.47989110419013 L623.9033900110994,295.99809995689856 M623.9033900110994,295.99809995689856 L627.3868301361903,300.8970491082666 M627.3868301361903,300.8970491082666 L629.5054361744474,306.0567592427494 M629.5054361744474,306.0567592427494 L630.2056256471104,311.3505997654904 M630.2056256471104,311.3505997654904 L629.4685944381935,316.64837159587023 M629.4685944381935,316.64837159587023 L627.3109014512781,321.8194864259951 M627.3109014512781,321.8194864259951 L623.784292865632,326.736198831221 M623.784292865632,326.736198831221 L618.9744603464763,331.27679070968594 M618.9744603464763,331.27679070968594 L612.9991302383323,335.32863898150055 M612.9991302383323,335.32863898150055 L606.0051781982052,338.7910623703492 M606.0051781982052,338.7910623703492 L598.1650699835811,341.57789725047775 M598.1650699835811,341.57789725047775 L589.6725782285271,343.61969021519394 M589.6725782285271,343.61969021519394 L580.7379515012115,344.8655232508985 M580.7379515012115,344.8655232508985 L571.582614167397,345.2842806103854 M571.582614167397,345.2842806103854 L562.4335760068959,344.86551866365375 M562.4335760068959,344.86551866365375 L553.517681782429,343.61969174400923 M553.517681782429,343.61969174400923 L545.0558960544798,341.5778957220989 M545.0558960544798,341.5778957220989 L537.257680577673,338.79106695369944 M537.257680577673,338.79106695369944 L530.3157927893508,335.32863898150055 M530.3990869506492,351.18227814039784 L524.4879574357943,347.1282072475422 M524.4879574357943,347.1282072475422 L519.7490344692994,342.5851169248824 M519.7490344692994,342.5851169248824 L516.2982486078242,337.6657059419782 M516.2982486078242,337.6657059419782 L514.2194504156673,332.4917484222965 M514.2194504156673,332.4917484222965 L513.5624019369023,327.1910626598549 M513.5624019369023,327.1910626598549 L514.3417154018521,321.89430702926626 M514.3417154018521,321.89430702926626 L516.5366495366738,316.7317504936366 M516.5366495366738,316.7317504936366 L520.0917372065646,311.8301012712763 M520.0917372065646,311.8301012712763 L524.918342291378,307.30939912494335 M524.918342291378,307.30939912494335 L530.896900582667,303.28013906512365 M530.896900582667,303.28013906512365 L537.8799743875304,299.84062837617796 M537.8799743875304,299.84062837617796 L545.69587556007,297.0746487294537 M545.69587556007,297.0746487294537 L554.152876971157,295.0494985496439 M554.152876971157,295.0494985496439 L563.0438666837849,293.8143907527067 M563.0438666837849,293.8143907527067 L572.151311399912,293.39933224170414 M572.151311399912,293.39933224170414 L581.25252625901,293.8143941629378 M581.25252625901,293.8143941629378 L590.124969446435,295.0494983601538 M590.124969446435,295.0494983601538 L598.5515740622412,297.074647213102 M598.5515740622412,297.074647213102 L606.3259535121175,299.840626100768 M606.3259535121175,299.840626100768 L613.257400368695,303.28013906512365 M530.3157927893508,335.32863898150055 L524.4013777444375,331.27679147277513 M524.4013777444375,331.27679147277513 L519.659830207399,326.7361942555946 M519.659830207399,326.7361942555946 L516.2071445193769,321.81948471131585 M516.2071445193769,321.81948471131585 L514.1272167591385,316.64837045357825 M514.1272167591385,316.64837045357825 L513.4698351892164,311.3505997654904 M513.4698351892164,311.3505997654904 L514.2496184874187,306.0567592427494 M514.2496184874187,306.0567592427494 L516.4458120711358,300.89704606887153 M516.4458120711358,300.89704606887153 L520.0029162186332,295.9980984382449 M520.0029162186332,295.9980984382449 L524.8322439298513,291.47988958649876 M524.8322439298513,291.47988958649876 L530.8141631679919,287.4528531241516 M530.8141631679919,287.4528531241516 L537.8011532322353,284.01524157659424 M537.8011532322353,284.01524157659424 L545.6214298403651,281.25078984919054 M545.6214298403651,281.25078984919054 L554.0831589414096,279.22675873599275 M554.0831589414096,279.22675873599275 L562.9791134463659,277.99233359793925 M562.9791134463659,277.99233359793925 L572.0916393729508,277.5775045215318 M572.0916393729508,277.5775045215318 L581.1979284911802,277.9923370062853 M581.1979284911802,277.9923370062853 L590.0753157799221,279.22675854660736 M590.0753157799221,279.22675854660736 L598.5066141629804,281.2507883336767 M598.5066141629804,281.2507883336767 L606.2853227055489,284.01523930244093 M606.2853227055489,284.01523930244093 L613.2206281843949,287.4528531241516" stroke="black"  stroke-width="4"  fill="red"/></svg>