<svg viewBox="0 0 800 800" xmlns="http://www.w3.org/2000/svg"><path d="M617.9489779488041,249.77703403734643 L613.7102793998599,244.41294533667116 M613.7102793998599,244.41294533667116 L610.8774399749177,238.750755213155 M610.8774399749177,238.750755213155 L609.5097244341957,232.9126231115041 M609.5097244341957,232.9126231115041 L609.634729545838,227.02420497597996 M609.634729545838,227.02420497597996 L611.2479326318515,221.21191908336908 M611.2479326318515,221.21191908336908 L614.3129483257342,215.60025164530157 M614.3129483257342,215.60025164530157 L618.7624459359861,210.30909798784808 M618.7624459359861,210.30909798784808 L624.4997434530335,205.45125218080403 M624.4997434530335,205.45125218080403 L631.4009661182124,201.13004451200817 M631.4009661182124,201.13004451200817 L639.3177675179231,197.43721574890753 M639.3177675179231,197.43721574890753 L648.0805254966963,194.451032725289 M648.0805254966963,194.451032725289 L657.5019508155733,192.23469422784012 M657.5019508155733,192.23469422784012 L667.3810311381624,190.83505516306388 M667.3810311381624,190.83505516306388 L677.5072467604039,190.28168680240003 M677.5072467604039,190.28168680240003 L687.6649432009999,190.58627059871873 M687.6649432009999,190.58627059871873 L697.6378104342481,191.74237368069203 M697.6378104342481,191.74237368069203 L707.2133713394741,193.7255817165933 M707.2133713394741,193.7255817165933 L716.1874230052148,196.49397482192455 M716.1874230052148,196.49397482192455 L724.3682632123421,199.98898532504745 M724.3682632123421,199.98898532504745 L731.5807511481405,204.1365714247318 M731.5807511481405,204.1365714247318 L737.6700118105757,208.84872546620915 M737.6700118105757,208.84872546620915 L742.5047592674931,214.02527317580194 M742.5047592674931,214.02527317580194 L745.9801667000925,219.55593224333523 M745.9801667000925,219.55593224333523 L748.0201860351983,225.3226227192796 M748.0201860351983,225.3226227192796 L748.5793255436422,231.201922076639 M748.5793255436422,231.201922076639 L747.6437465368487,237.06769220093594 M747.6437465368487,237.06769220093594 L745.2317235177909,242.79377630098475 M745.2317235177909,242.79377630098475 L741.3934234109627,248.25672448426826 M741.3934234109627,248.25672448426826 L736.2099469299417,253.3384800190069 M736.2099469299417,253.3384800190069 L729.7917077899419,257.9289837794175 M729.7917077899419,257.9289837794175 L722.2761441424645,261.9286160089889 M722.2761441424645,261.9286160089889 L713.8247993285722,265.2504246335655 M713.8247993285722,265.2504246335655 L704.6198335319523,267.8220829200978 M704.6198335319523,267.8220829200978 L694.8600701961254,269.58753089176037 M694.8600701961254,269.58753089176037 L684.7566078554462,270.5082434161946 M684.7566078554462,270.5082434161946 L674.5281772412458,270.5641219605247 M674.5281772412458,270.5641219605247 L664.3962676746348,269.75394715726236 M664.3962676746348,269.75394715726236 L654.580241973016,268.09540823551964 M654.580241973016,268.09540823551964 L645.2924514081608,265.6246917148027 M645.311205838422,281.42225950373927 L645.2924514081608,265.6246917148027 M645.311205838422,281.42225950373927 L654.5938289420369,283.89433930407 M654.5938289420369,283.89433930407 L664.404390796233,285.5537930983454 M664.404390796233,285.5537930983454 L674.5306591957232,286.3644147267968 M674.5306591957232,286.3644147267968 L684.753394449092,286.30850536614685 M684.753394449092,286.30850536614685 L694.8512315938303,285.3872850450866 M694.8512315938303,285.3872850450866 L704.6055626584326,283.6208631980558 M704.6055626584326,283.6208631980558 L713.8054074503648,281.04778586964835 M713.8054074503648,281.04778586964835 L722.2520537746609,277.72414350451726 M722.2520537746609,277.72414350451726 L729.763443093278,273.7223022099098 M729.763443093278,273.7223022099098 L736.1781218701592,269.12926149417325 M736.1781218701592,269.12926149417325 L741.358727972854,264.04469559048 M741.358727972854,264.04469559048 L745.1949083246161,258.5787239744182 M745.1949083246161,258.5787239744182 L747.605606257514,252.84946830556248 M747.605606257514,252.84946830556248 L748.5406814853862,246.98044658434344 M748.5406814853862,246.98044658434344 L747.9818683088222,241.09788543029947 M747.9818683088222,241.09788543029947 L745.9429963777498,235.3279930063469 M745.9429963777498,235.3279930063469 L742.4695309114838,229.79426060384748 M742.4695309114838,229.79426060384748 L737.6374767172001,224.61483416838172 M737.6374767172001,224.61483416838172 L731.5516016662148,219.90005783262228 M731.5516016662148,219.90005783262228 L724.3431184118392,215.7501621815481 M724.3431184118392,215.7501621815481 L716.1668159708897,212.2532044642985 M716.1668159708897,212.2532044642985 L707.1977383080175,209.48326829528372 M707.1977383080175,209.48326829528372 L697.6274819538164,207.49895447843073 M697.6274819538164,207.49895447843073 L687.6601374811166,206.34220664402278 M687.6601374811166,206.34220664402278 L677.5080652800921,206.03745296557236 M677.5080652800921,206.03745296557236 L667.3874566146117,206.5911299629999 M667.3874566146117,206.5911299629999 L657.5138475515049,207.991549558352 M657.5138475515049,207.991549558352 L648.0976421026718,210.20912371819816 M648.0976421026718,210.20912371819816 L639.3397419611367,213.19697100371866 M639.3397419611367,213.19697100371866 L631.4273330298303,216.89185689267475 M631.4273330298303,216.89185689267475 L624.5299435693296,221.21547037776054 M624.5299435693296,221.21547037776054 L618.7958375180044,226.07601902883704 M618.7958375180044,226.07601902883704 L614.348820361492,231.37011451760065 M614.348820361492,231.37011451760065 L611.2855195901045,236.98489959727118 M611.2855195901045,236.98489959727118 L609.6732273985874,242.80041199162457 M609.6732273985874,242.80041199162457 L609.5483076581168,248.69209619721295 M609.5483076581168,248.69209619721295 L610.915279171991,254.53346380036402 M610.915279171991,254.53346380036402 L613.7465591769559,260.1987893719237 M613.7465591769559,260.1987893719237 L617.9829146597722,265.5658461337659 M617.9829146597722,265.5658461337659 L617.9489779488041,249.77703403734643 M692.6649498082529,238.24374373579212 L645.2924514081608,265.6246917148027 M665.3213750575239,222.456923492852 L692.6649498082529,238.24374373579212 M617.9489779488041,249.77703403734643 L665.3213750575239,222.456923492852 M744.0060897655442,236.47366831006838 L740.6335788356155,243.81594976327165 M734.6842153114992,231.10354893584116 L744.0060897655442,236.47366831006838 M740.6335788356155,243.81594976327165 L727.9286320440108,245.78459676244785 M721.9898026674762,233.068678551326 L734.6842153114992,231.10354893584116 M727.9286320440108,245.78459676244785 L718.6067316939434,240.4074411146999 M718.6067316939434,240.4074411146999 L721.9898026674762,233.068678551326 M655.7351269665852,194.87593463532562 L668.4045644494579,192.92135296592943 M652.327029733955,202.17529312540853 L655.7351269665852,194.87593463532562 M661.5988556366717,207.523564308909 L652.327029733955,202.17529312540853 M674.2787870128283,205.56549355202566 L661.5988556366717,207.523564308909 M677.676397236268,198.262644476398 L674.2787870128283,205.56549355202566 M668.4045644494579,192.92135296592943 L677.676397236268,198.262644476398 M692.6573501511348,254.0261714421739 L645.311205838422,281.42225950373927 M692.6649498082529,238.24374373579212 L692.6573501511348,254.0261714421739 M617.9829146597722,265.5658461337659 L665.3289578499423,238.23059535285762 M665.3289578499423,238.23059535285762 L692.6573501511348,254.0261714421739 M723.8423152144632,253.07106674671593 L723.5850138761709,254.13320284257986 M723.5850138761709,254.13320284257986 L723.7748553822893,255.20070492299266 M723.7748553822893,255.20070492299266 L724.4009033291888,256.2115236164234 M724.4009033291888,256.2115236164234 L725.4268514118145,257.1068777714885 M725.4268514118145,257.1068777714885 L726.7931170066291,257.8346813458286 M726.7931170066291,257.8346813458286 L728.4202865509232,258.3525794565506 M728.4202865509232,258.3525794565506 L730.2137414171359,258.63042477342515 M730.2137414171359,258.63042477342515 L732.0691658954267,258.6520424614824 M732.0691658954267,258.6520424614824 L733.8786359064788,258.41617470832716 M733.8786359064788,258.41617470832716 L735.5368975861297,257.9365507994898 M735.5368975861297,257.9365507994898 L736.9475237649013,257.2410931455225 M736.9475237649013,257.2410931455225 L738.0285170436898,256.3702745369668 M738.0285170436898,256.3702745369668 L738.7170832984768,255.37475729222444 M738.7170832984768,255.37475729222444 L738.9732815829828,254.3124366334702 M738.9732815829828,254.3124366334702 L738.7823120831565,253.24506778763373 M738.7823120831565,253.24506778763373 L738.1553722247659,252.2346711112491 M738.1553722247659,252.2346711112491 L737.128972328645,251.33992823395295 M737.128972328645,251.33992823395295 L735.7628031643611,250.61279084739357 M735.7628031643611,250.61279084739357 L734.1362525657178,250.09545495297982 M734.1362525657178,250.09545495297982 L732.3437963767218,249.81794267878252 M732.3437963767218,249.81794267878252 L730.4895189083907,249.79635105753204 M730.4895189083907,249.79635105753204 L728.6810923200355,250.03193401911062 M728.6810923200355,250.03193401911062 L727.0235179813574,250.5110239216487 M727.0235179813574,250.5110239216487 L725.6130741424195,251.20582411493046 M725.6130741424195,251.20582411493046 L724.5317164292671,252.07601242402353 M724.5317164292671,252.07601242402353 L723.8423152144632,253.07106674671593 M666.9939533197894,220.25696599335697 L668.7111265508031,219.8583177068483 M668.7111265508031,219.8583177068483 L670.2131054821298,219.23425488514488 M670.2131054821298,219.23425488514488 L671.4125627475407,218.42109622518456 M671.4125627475407,218.42109622518456 L672.2398075292713,217.46615611189816 M672.2398075292713,217.46615611189816 L672.6468236366716,216.4249802327824 M672.6468236366716,216.4249802327824 L672.6100438735641,215.3580969587377 M672.6100438735641,215.3580969587377 L672.1317059997363,214.3275111666453 M672.1317059997363,214.3275111666453 L671.2396897130384,213.39308769289772 M671.2396897130384,213.39308769289772 L669.9858959149378,212.60908375489572 M669.9858959149378,212.60908375489572 L668.4431883402613,212.02100609528492 M668.4431883402613,212.02100609528492 L666.7011935927542,211.6629807417322 M666.7011935927542,211.6629807417322 L664.8610692433974,211.55577843349153 M664.8610692433974,211.55577843349153 L663.0296610583339,211.70561956392612 M663.0296610583339,211.70561956392612 L661.3133118719825,212.10380864557908 M661.3133118719825,212.10380864557908 L659.8116989255085,212.72724623986926 M659.8116989255085,212.72724623986926 L658.6120585380861,213.53975272467198 M658.6120585380861,213.53975272467198 L657.784123479782,214.49416312121974 M657.784123479782,214.49416312121974 L657.3760739765718,215.5350579999503 M657.3760739765718,215.5350579999503 L657.4117077661431,216.60196562889223 M657.4117077661431,216.60196562889223 L657.8890532145783,217.6328817865927 M657.8890532145783,217.6328817865927 L658.7804553781002,218.56786445398427 M658.7804553781002,218.56786445398427 L660.0341602465675,219.3525277310469 M660.0341602465675,219.3525277310469 L661.5773136523655,219.94121174963595 M661.5773136523655,219.94121174963595 L663.3201966596539,220.29965422916496 M663.3201966596539,220.29965422916496 L665.161443305706,220.4069887008166 M665.161443305706,220.4069887008166 L666.9939533197894,220.25696599335697 M665.3213750575239,222.456923492852 L665.3289578499423,238.23059535285762 M744.0060897655442,236.47366831006838 L743.9916377418267,242.78835171832634 M740.6335788356155,243.81594976327165 L740.619869339025,250.13226145174684 M743.9916377418267,242.78835171832634 L740.619869339025,250.13226145174684 M734.6842153114992,231.10354893584116 L734.6718399243412,237.41704035782374 M734.6718399243412,237.41704035782374 L743.9916377418267,242.78835171832634 M727.9286320440108,245.78459676244785 L727.9177464108036,252.10134474637607 M740.619869339025,250.13226145174684 L727.9177464108036,252.10134474637607 M721.9898026674762,233.068678551326 L721.9802464633395,239.3826062707863 M721.9802464633395,239.3826062707863 L734.6718399243412,237.41704035782374 M718.6067316939434,240.4074411146999 L718.597922714562,246.7229971160673 M727.9177464108036,252.10134474637607 L718.597922714562,246.7229971160673 M718.597922714562,246.7229971160673 L721.9802464633395,239.3826062707863 M655.7351269665852,194.87593463532562 L655.7402796902329,201.18136117274167 M668.4045644494579,192.92135296592943 L668.4069090702276,199.2263432128887 M655.7402796902329,201.18136117274167 L668.4069090702276,199.2263432128887 M652.327029733955,202.17529312540853 L652.3329407965514,208.4823479270803 M652.3329407965514,208.4823479270803 L655.7402796902329,201.18136117274167 M661.5988556366717,207.523564308909 L661.6027122884052,213.83181108879444 M661.6027122884052,213.83181108879444 L652.3329407965514,208.4823479270803 M674.2787870128283,205.56549355202566 L674.2798309081164,211.87330403720676 M674.2798309081164,211.87330403720676 L661.6027122884052,213.83181108879444 M677.676397236268,198.262644476398 L677.6766874415971,204.5688266927408 M677.6766874415971,204.5688266927408 L674.2798309081164,211.87330403720676 M668.4069090702276,199.2263432128887 L677.6766874415971,204.5688266927408 M723.8572714454918,243.6040322661466 L724.5469014596936,242.60930837103865 M724.5469014596936,242.60930837103865 L725.6286187452201,241.73940906330205 M725.6286187452201,241.73940906330205 L727.0395320133779,241.04483964806911 M727.0395320133779,241.04483964806911 L728.6976583665012,240.56590888852782 M728.6976583665012,240.56590888852782 L730.5066875110524,240.33040418630645 M730.5066875110524,240.33040418630645 L732.3615831211494,240.3519886348315 M732.3615831211494,240.3519886348315 L734.1546371766887,240.62940872153905 M734.1546371766887,240.62940872153905 L735.7817306782283,241.1465727704918 M735.7817306782283,241.1465727704918 L737.1483562656754,241.87346864221308 M737.1483562656754,241.87346864221308 L738.1750995853703,242.76791436938237 M738.1750995853703,242.76791436938237 L738.8022498831194,243.77797553132137 M738.8022498831194,243.77797553132137 L738.9932845578445,244.84498999635707 M738.9932845578445,244.84498999635707 L738.7370023309081,245.90695800336619 M738.7370023309081,245.90695800336619 L738.0482078333454,246.90214482064442 M738.0482078333454,246.90214482064442 L736.9668552269084,247.77267442919464 M736.9668552269084,247.77267442919464 L735.5557594981003,248.467901305998 M735.5557594981003,248.467901305998 L733.8969453453245,248.94736607205436 M733.8969453453245,248.94736607205436 L732.0868720837584,249.1831555664872 M732.0868720837584,249.1831555664872 L730.2308286972977,249.16154505086877 M730.2308286972977,249.16154505086877 L728.4367752980063,248.88379192103582 M728.4367752980063,248.88379192103582 L726.809062437718,248.36606565476666 M726.809062437718,248.36606565476666 L725.442340355041,247.6385035951223 M725.442340355041,247.6385035951223 L724.4160491485841,246.74344658885866 M724.4160491485841,246.74344658885866 L723.7897913562881,245.73296340955704 M723.7897913562881,245.73296340955704 L723.5998854274899,244.66581570976564 M723.5998854274899,244.66581570976564 L723.8572714454918,243.6040322661466 M723.8572714454918,243.6040322661466 L723.8423152144632,253.07106674671593 M666.9899642732587,210.800852542703 L665.1568446205735,210.95082520555803 M665.1568446205735,210.95082520555803 L663.314985511194,210.8435265384535 M663.314985511194,210.8435265384535 L661.5715228731074,210.48520363179028 M661.5715228731074,210.48520363179028 L660.0278564055607,209.89671600542624 M660.0278564055607,209.89671600542624 L658.7737348865352,209.11231452691777 M658.7737348865352,209.11231452691777 L657.8820366929758,208.17764384897038 M657.8820366929758,208.17764384897038 L657.4045330047568,207.14707173972357 M657.4045330047568,207.14707173972357 L657.3688879049046,206.08052022311904 M657.3688879049046,206.08052022311904 L657.7770736190821,205.03997282557953 M657.7770736190821,205.03997282557953 L658.6052844363917,204.0858810837729 M658.6052844363917,204.0858810837729 L659.8053240640781,203.27364590902346 M659.8053240640781,203.27364590902346 L661.3074365198594,202.6504165123618 M661.3074365198594,202.6504165123618 L663.0243564758895,202.25236041589176 M663.0243564758895,202.25236041589176 L664.8563735669726,202.1025693305662 M664.8563735669726,202.1025693305662 L666.6971096331299,202.20973583443708 M666.6971096331299,202.20973583443708 L668.43968342112,202.56764161543447 M668.43968342112,202.56764161543447 L669.9829037603051,203.15552288313552 M669.9829037603051,203.15552288313552 L671.237114269635,203.9392650237175 M671.237114269635,203.9392650237175 L672.1294269946453,204.87337650902094 M672.1294269946453,204.87337650902094 L672.6079237685426,205.9036182531031 M672.6079237685426,205.9036182531031 L672.6447156038272,206.9701454140951 M672.6447156038272,206.9701454140951 L672.2375639732311,208.01097381239066 M672.2375639732311,208.01097381239066 L671.4100438906399,208.96559526972624 M671.4100438906399,208.96559526972624 L670.2101875065671,209.7784826187579 M670.2101875065671,209.7784826187579 L668.7077088231339,210.40233724249237 M668.7077088231339,210.40233724249237 L666.9899642732587,210.800852542703 M666.9899642732587,210.800852542703 L666.9939533197894,220.25696599335697" stroke="black"  stroke-width="4"  fill="red"/>
<path d="M502.68519247311485,316.2507519230113 L489.068067687363,311.81628139681266 M489.068067687363,311.81628139681266 L474.7802130687463,308.16466358315444 M474.7802130687463,308.16466358315444 L459.95103135810837,305.3282336853892 M459.95103135810837,305.3282336853892 L444.71449483944076,303.33208647102066 M444.71449483944076,303.33208647102066 L429.2081051742134,302.1938314011748 M429.2081051742134,302.1938314011748 L413.5715690936537,301.92355457355006 M413.5715690936537,301.92355457355006 L397.9457790361157,302.52360908469745 M397.9457790361157,302.52360908469745 L382.4714828137539,303.98872287605195 M382.4714828137539,303.98872287605195 L367.2882016834783,306.3059433000776 M367.2882016834783,306.3059433000776 L352.53298152977476,309.454792895373 M352.53298152977476,309.454792895373 L338.33919145793135,313.40742130458534 M338.33919145793135,313.40742130458534 L324.83549649064,318.1287819701062 M324.83549649064,318.1287819701062 L312.1446142571217,323.5769785929597 M312.1446142571217,323.5769785929597 L300.3823411459386,329.7035276411498 M300.3823411459386,329.7035276411498 L289.6564251372474,336.4537861576086 M289.6564251372474,336.4537861576086 L280.0656547035127,343.76739527275186 M280.0656547035127,343.76739527275186 L271.6989430669177,351.57873591619875 M271.6989430669177,351.57873591619875 L264.6344147203901,359.8175280682782 M264.6344147203901,359.8175280682782 L258.9387642794079,368.4093622205485 M258.9387642794079,368.4093622205485 L254.66645682254537,377.2764075802123 M254.66645682254537,377.2764075802123 L251.8592225125698,386.33801741058505 M251.8592225125698,386.33801741058505 L250.54557401902568,395.5114695886366 M250.54557401902568,395.5114695886366 L250.74045561489018,404.71268134949014 M250.74045561489018,404.71268134949014 L252.44495610953598,413.8570317005575 M252.44495610953598,413.8570317005575 L255.6462075321232,422.8600855936687 M255.6462075321232,422.8600855936687 L260.3173948314704,431.63842326370957 M260.3173948314704,431.63842326370957 L266.41806339730965,440.11033005127797 M266.41806339730965,440.11033005127797 L273.8941363154431,448.1967231491261 M274.122508954829,464.0937439311688 L273.8941363154431,448.1967231491261 M502.783674272813,332.07615858161716 L489.17412315103047,327.6392575844266 M489.17412315103047,327.6392575844266 L474.89421816216674,323.9856372158073 M474.89421816216674,323.9856372158073 L460.0732911180158,321.14765109429607 M460.0732911180158,321.14765109429607 L444.84524099923135,319.150408304971 M444.84524099923135,319.150408304971 L429.3474943108031,318.0115283702823 M429.3474943108031,318.0115283702823 L413.71968144898113,317.7411031546246 M413.71968144898113,317.7411031546246 L398.1026178368258,318.3414871014033 M398.1026178368258,318.3414871014033 L382.6369742635063,319.8074051358503 M382.6369742635063,319.8074051358503 L367.46219548795455,322.1258972061035 M367.46219548795455,322.1258972061035 L352.7152520526099,325.2764741568051 M352.7152520526099,325.2764741568051 L338.52943948645566,329.2312697505249 M338.52943948645566,329.2312697505249 L325.0333515219684,333.9552174870525 M325.0333515219684,333.9552174870525 L312.3496374369662,339.40639728448656 M312.3496374369662,339.40639728448656 L300.5940287197991,345.5362981681734 M300.5940287197991,345.5362981681734 L289.87421251446966,352.29024635292524 M289.87421251446966,352.29024635292524 L280.28892102727457,359.60784904007176 M280.28892102727457,359.60784904007176 L271.92701630680335,367.42345042057866 M271.92701630680335,367.42345042057866 L264.86657730251466,375.6667312949811 M264.86657730251466,375.6667312949811 L259.17425911403757,384.26324086246154 M259.17425911403757,384.26324086246154 L254.90449383328158,393.13510534580985 M254.90449383328158,393.13510534580985 L252.0989855116452,402.20163369075567 M252.0989855116452,402.20163369075567 L250.78622792724317,411.3800585491671 M250.78622792724317,411.3800585491671 L250.98115395888433,420.5862514274205 M250.98115395888433,420.5862514274205 L252.68484876681492,429.7355455542937 M252.68484876681492,429.7355455542937 L255.88444861967142,438.743460444795 M255.88444861967142,438.743460444795 L260.5531506761563,447.5265316785226 M260.5531506761563,447.5265316785226 L266.65052041421677,456.0030010781212 M266.65052041421677,456.0030010781212 L274.122508954829,464.0937439311688 M502.783674272813,332.07615858161716 L502.68519247311485,316.2507519230113 M273.8941363154431,448.1967231491261 L502.68519247311485,316.2507519230113 M266.74180179893443,416.1421643816682 L267.47264061516455,415.1224821671135 M267.47264061516455,415.1224821671135 L268.5965348676449,414.2307514091657 M268.5965348676449,414.2307514091657 L270.04812325908733,413.5187555742052 M270.04812325908733,413.5187555742052 L271.7430693353452,413.0278063367896 M271.7430693353452,413.0278063367896 L273.58289877551874,412.7864123868188 M273.58289877551874,412.7864123868188 L275.46087430652375,412.8085198275909 M275.46087430652375,412.8085198275909 L277.267858171818,413.092900100439 M277.267858171818,413.092900100439 L278.8989498684409,413.6230427348837 M278.8989498684409,413.6230427348837 L280.2594200323686,414.36817704862824 M280.2594200323686,414.36817704862824 L281.27019677997555,415.2850711613994 M281.27019677997555,415.2850711613994 L281.8725130184851,416.32047736887205 M281.8725130184851,416.32047736887205 L282.0312756020828,417.4142681176422 M282.0312756020828,417.4142681176422 L281.7371318907272,418.502901760197 M281.7371318907272,418.502901760197 L281.0071348336778,419.5230645732747 M281.0071348336778,419.5230645732747 L279.88359391588455,420.4154497504293 M279.88359391588455,420.4154497504293 L278.4317966840241,421.1281281802143 M278.4317966840241,421.1281281802143 L276.73612483908533,421.6196302749627 M276.73612483908533,421.6196302749627 L274.895218982512,421.86132066309324 M274.895218982512,421.86132066309324 L273.01606552987886,421.8391869454099 M273.01606552987886,421.8391869454099 L271.20806753444754,421.5544608976629 M271.20806753444754,421.5544608976629 L269.57636040950285,421.02373376680123 M269.57636040950285,421.02373376680123 L268.21581449444926,420.2779101467622 M268.21581449444926,420.2779101467622 L267.20551904185066,419.360379817835 M267.20551904185066,419.360379817835 L266.6041308672663,418.32453624350387 M266.6041308672663,418.32453624350387 L266.44653052018407,417.230607165797 M266.44653052018407,417.230607165797 L266.74180179893443,416.1421643816682 M274.122508954829,464.0937439311688 L502.783674272813,332.07615858161716 M287.38095120444206,431.18531643425706 L283.7292030497116,438.71762567936526 M278.1217345369576,425.6762743769018 L287.38095120444206,431.18531643425706 M265.21096797474104,427.69223736214474 L278.1217345369576,425.6762743769018 M261.5485215734992,435.22089561939515 L265.21096797474104,427.69223736214474 M270.8075331852723,440.737242754234 L261.5485215734992,435.22089561939515 M283.7292030497116,438.71762567936526 L270.8075331852723,440.737242754234 M266.74180179893443,416.1421643816682 L266.88096632878717,425.6721576008616 M266.88096632878717,425.6721576008616 L266.58580525454965,426.7609533200474 M266.58580525454965,426.7609533200474 L266.7433629715315,427.85523705577157 M266.7433629715315,427.85523705577157 L267.34455809995745,428.8914164047135 M267.34455809995745,428.8914164047135 L268.35452125878993,429.8092441142895 M268.35452125878993,429.8092441142895 L269.71461491004027,430.55530943403164 M269.71461491004027,430.55530943403164 L271.3457760933111,431.0862085421976 M271.3457760933111,431.0862085421976 L273.15316622851833,431.3710268473859 M273.15316622851833,431.3710268473859 L275.031685278513,431.3931677367167 M275.031685278513,431.3931677367167 L276.87196715915763,431.1513990361308 M276.87196715915763,431.1513990361308 L278.5670617487349,430.65973767654987 M278.5670617487349,430.65973767654987 L280.01836204724987,429.94682829249734 M280.01836204724987,429.94682829249734 L281.1415152430425,429.05415389077143 M281.1415152430425,429.05415389077143 L281.8712563098628,428.03366039425373 M281.8712563098628,428.03366039425373 L282.1652905769905,426.9446738197381 M282.1652905769905,426.9446738197381 L282.00657140942883,425.85052841108507 M282.00657140942883,425.85052841108507 L281.4044488477605,424.8147864231022 M281.4044488477605,424.8147864231022 L280.39400472487614,423.89759492110056 M280.39400472487614,423.89759492110056 L279.03398678015105,423.1522188983553 M279.03398678015105,423.1522188983553 L277.4034406152722,422.62190427872247 M277.4034406152722,422.62190427872247 L275.59706392884505,422.3374317437689 M275.59706392884505,422.3374317437689 L273.7197220046381,422.3153171304732 M273.7197220046381,422.3153171304732 L271.88051581089485,422.5567893968978 M271.88051581089485,422.5567893968978 L270.1861464947894,423.0478979066029 M270.1861464947894,423.0478979066029 L268.73505488922945,423.76012470503827 M268.73505488922945,423.76012470503827 L267.6115485919544,424.65214469690636 M267.6115485919544,424.65214469690636 L266.88096632878717,425.6721576008616 M287.29282485436903,424.835741859663 L283.64020840530077,432.3664270595426 M283.64020840530077,432.3664270595426 L283.7292030497116,438.71762567936526 M287.29282485436903,424.835741859663 L287.38095120444206,431.18531643425706 M278.03155899923735,419.32788873165225 L287.29282485436903,424.835741859663 M278.03155899923735,419.32788873165225 L278.1217345369576,425.6762743769018 M265.1178750900972,421.34341653355807 L278.03155899923735,419.32788873165225 M265.1178750900972,421.34341653355807 L265.21096797474104,427.69223736214474 M261.4545556007451,428.87045071106957 L265.1178750900972,421.34341653355807 M261.4545556007451,428.87045071106957 L261.5485215734992,435.22089561939515 M270.71561626167784,434.385608984918 L261.4545556007451,428.87045071106957 M270.71561626167784,434.385608984918 L270.8075331852723,440.737242754234 M283.64020840530077,432.3664270595426 L270.71561626167784,434.385608984918" stroke="black"  stroke-width="4"  fill="red"/>
<path d="M317.74904438276053,454.9423188512451 L298.1669327173962,466.2606321962612 M312.2563567342313,473.555841989961 L317.74904438276053,454.9423188512451 M298.1669327173962,466.2606321962612 L302.6995614874147,468.79776395093086 M302.6995614874147,468.79776395093086 L307.3983366679559,471.23071795788417 M307.3983366679559,471.23071795788417 L312.2563567342313,473.555841989961 M533.0348261274983,330.5087552931572 L374.2526538011597,422.2836573416697 M374.35556888295264,431.81564125413206 L374.2526538011597,422.2836573416697 M374.35556888295264,431.81564125413206 L317.8713185810295,464.48485895958686 M317.74904438276053,454.9423188512451 L317.8713185810295,464.48485895958686 M298.3818901041418,482.16735127339666 L298.1669327173962,466.2606321962612 M533.1164358285905,346.3419661420496 L298.3818901041418,482.16735127339666 M533.1164358285905,346.3419661420496 L533.0348261274983,330.5087552931572 M312.38065017832594,483.1043761217768 L317.8713185810295,464.48485895958686 M312.38065017832594,483.1043761217768 L312.2563567342313,473.555841989961 M312.38065017832594,483.1043761217768 L322.3254431336522,487.3336685382545 M322.3254431336522,487.3336685382545 L332.7972255182497,491.1114207069377 M332.7972255182497,491.1114207069377 L343.73668021511935,494.41577085717495 M343.73668021511935,494.41577085717495 L343.6229287572526,484.8636032789253 M343.6229287572526,484.8636032789253 L358.21181443486074,488.37062753526425 M358.21181443486074,488.37062753526425 L373.32927247371924,491.03791806691856 M373.32927247371924,491.03791806691856 L388.8342387139895,492.8400575738966 M388.8342387139895,492.8400575738966 L404.58175238072914,493.7598962112876 M404.58175238072914,493.7598962112876 L420.4245398288172,493.78864129587566 M420.4245398288172,493.78864129587566 L436.21433903014787,492.92602608748666 M436.21433903014787,492.92602608748666 L451.8034750663232,491.1802821715336 M451.8034750663232,491.1802821715336 L467.0462059337361,488.5680372382535 M467.0462059337361,488.5680372382535 L481.80026303510556,485.1141919187056 M481.80026303510556,485.1141919187056 L495.9281805412673,480.85158952437246 M495.9281805412673,480.85158952437246 L509.2986603082237,475.8207301676599 M509.2986603082237,475.8207301676599 L521.7878440405398,470.0693316407014 M521.7878440405398,470.0693316407014 L533.2804568196567,463.65179598218356 M533.2804568196567,463.65179598218356 L543.6710098366883,456.6286718129355 M543.6710098366883,456.6286718129355 L552.864563564658,449.06607164257446 M552.864563564658,449.06607164257446 L560.7777836271252,441.0349540779131 M560.7777836271252,441.0349540779131 L567.3395360687804,432.61042949670696 M567.3395360687804,432.61042949670696 L572.4915438730322,423.8710482429917 M572.4915438730322,423.8710482429917 L576.1888856004994,414.8979687131209 M576.1888856004994,414.8979687131209 L578.4001901599094,405.7742428941385 M578.4001901599094,405.7742428941385 L579.107956512616,396.58399803270925 M579.107956512616,396.58399803270925 L578.3085683500735,387.41165810118116 M578.3085683500735,387.41165810118116 L576.0122260640753,378.34113469287524 M576.0122260640753,378.34113469287524 L572.242726247883,369.45511675184696 M572.242726247883,369.45511675184696 L567.0371843960165,360.83430156208965 M567.0371843960165,360.83430156208965 L560.4455571298461,352.5566892192702 M560.4455571298461,352.5566892192702 L552.5301369930736,344.69691431891465 M552.5301369930736,344.69691431891465 L543.3649103988564,337.3255961009704 M543.3649103988564,337.3255961009704 L533.0348261274983,330.5087552931572 M298.3818901041418,482.16735127339666 L310.2539587513016,488.4306098044816 M310.2539587513016,488.4306098044816 L323.1342210322074,493.9806971335447 M323.1342210322074,493.9806971335447 L336.8996140147992,498.7632587728591 M336.8996140147992,498.7632587728591 L351.4181433992466,502.73134917015864 M351.4181433992466,502.73134917015864 L366.55010466404667,505.8459921468843 M366.55010466404667,505.8459921468843 L382.14967180383275,508.0764808593408 M382.14967180383275,508.0764808593408 L398.0660589683366,509.40090487167936 M398.0660589683366,509.40090487167936 L414.14548260939154,509.80611805787123 M414.14548260939154,509.80611805787123 L430.23230764457116,509.2881845571087 M430.23230764457116,509.2881845571087 L446.17092850818534,507.85217995685525 M446.17092850818534,507.85217995685525 L461.8071982071161,505.51228804511584 M461.8071982071161,505.51228804511584 L476.99011730190193,502.29155910999543 M476.99011730190193,502.29155910999543 L491.5733141050376,498.2216871616645 M491.5733141050376,498.2216871616645 L505.41650973662803,493.34267338167774 M505.41650973662803,493.34267338167774 L518.3869842932171,487.7023906081615 M518.3869842932171,487.7023906081615 L530.3607752257785,481.3560454604683 M530.3607752257785,481.3560454604683 L541.2240391398873,474.3656222608961 M541.2240391398873,474.3656222608961 L550.8740148858533,466.79918127199744 M550.8740148858533,466.79918127199744 L559.2200625195067,458.7302201296941 M559.2200625195067,458.7302201296941 L566.1844318304975,450.2368220032213 M566.1844318304975,450.2368220032213 L571.7029817198234,441.4009232655071 M571.7029817198234,441.4009232655071 L575.7257179665426,432.30744879032125 M575.7257179665426,432.30744879032125 L578.2171625615907,423.0434727300884 M578.2171625615907,423.0434727300884 L579.1565383852492,413.6973941176469 M579.1565383852492,413.6973941176469 L578.5379807989102,404.35802690739354 M578.5379807989102,404.35802690739354 L576.3703478352277,395.1137722059776 M576.3703478352277,395.1137722059776 L572.6771047351833,386.05181386712627 M572.6771047351833,386.05181386712627 L567.4959670644275,377.2572725225608 M567.4959670644275,377.2572725225608 L560.8784281354344,368.8124616113764 M560.8784281354344,368.8124616113764 L552.8891947557479,360.7961314382511 M552.8891947557479,360.7961314382511 L543.6055402452535,353.282763750159 M543.6055402452535,353.282763750159 L533.1164358285905,346.3419661420496 M418.5007367781648,491.8484138450614 L343.6229287572526,484.8636032789253 M436.82212752721335,428.0939112818875 L418.5007367781648,491.8484138450614 M374.2526538011597,422.2836573416697 L436.82212752721335,428.0939112818875 M447.45521477458715,478.9563528263117 L448.17640106068455,477.92773627053896 M448.17640106068455,477.92773627053896 L449.2939385166055,477.028222002857 M449.2939385166055,477.028222002857 L450.7428767417625,476.30999627149345 M450.7428767417625,476.30999627149345 L452.43902667812665,475.81475360416573 M452.43902667812665,475.81475360416573 L454.28387646106296,475.57122063601014 M454.28387646106296,475.57122063601014 L456.17028668850753,475.59354944686504 M456.17028668850753,475.59354944686504 L457.9887384845645,475.88041505671924 M457.9887384845645,475.88041505671924 L459.63365753680165,476.41518299393385 M459.63365753680165,476.41518299393385 L461.0094437965307,477.1668479796107 M461.0094437965307,477.1668479796107 L462.0362128519953,478.0917457648801 M462.0362128519953,478.0917457648801 L462.65422088298504,479.1362099245705 M462.65422088298504,479.1362099245705 L462.82747106338525,480.23956689274223 M462.82747106338525,480.23956689274223 L462.5457946474737,481.33770989610696 M462.5457946474737,481.33770989610696 L461.8254609432944,482.3668118092247 M461.8254609432944,482.3668118092247 L460.708290839068,483.26699065457797 M460.708290839068,483.26699065457797 L459.25915060239396,483.98590795717314 M459.25915060239396,483.98590795717314 L457.5622755560048,484.4817107502578 M457.5622755560048,484.4817107502578 L455.7163436784281,484.7255440894613 M455.7163436784281,484.7255440894613 L453.82874227512434,484.70318705395334 M453.82874227512434,484.70318705395334 L452.00926310121605,484.4159711251159 M452.00926310121605,484.4159711251159 L450.3637158148851,483.8806110182936 M450.3637158148851,483.8806110182936 L448.9878444296734,483.12824765046196 M448.9878444296734,483.12824765046196 L447.9615528005816,482.2027052953823 M447.9615528005816,482.2027052953823 L447.34447541280116,481.15779801675114 M447.34447541280116,481.15779801675114 L447.17239588202847,480.0543009008005 M447.17239588202847,480.0543009008005 L447.45521477458715,478.9563528263117 M539.0553447141224,358.2096858354597 L539.7640474578716,357.1981810258601 M539.7640474578716,357.1981810258601 L540.8665980611272,356.3136269405953 M540.8665980611272,356.3136269405953 L542.2989297549962,355.60734993730705 M542.2989297549962,355.60734993730705 L543.9778158164804,355.12033776786564 M543.9778158164804,355.12033776786564 L545.8057256578523,354.88086420755883 M545.8057256578523,354.88086420755883 L547.6765266473301,354.90281094465286 M547.6765266473301,354.90281094465286 L549.4815996934886,355.18490872034135 M549.4815996934886,355.18490872034135 L551.1161154110082,355.7107933402731 M551.1161154110082,355.7107933402731 L552.4851457122056,356.44994106732736 M552.4851457122056,356.44994106732736 L553.509138252017,357.35946396663667 M553.509138252017,357.35946396663667 L554.1285277570585,358.38656022810426 M554.1285277570585,358.38656022810426 L554.3072538099484,359.47156217515146 M554.3072538099484,359.47156217515146 L554.0348258523584,360.5514385879469 M554.0348258523584,360.5514385879469 L553.3269830693754,361.56340289313016 M553.3269830693754,361.56340289313016 L552.2247898843864,362.4486127103394 M552.2247898843864,362.4486127103394 L550.7922638410575,363.1555640965987 M550.7922638410575,363.1555640965987 L549.1126788002455,363.64311634416845 M549.1126788002455,363.64311634416845 L547.283696152682,363.8828889358416 M547.283696152682,363.8828889358416 L545.4117315935933,363.86090701902697 M545.4117315935933,363.86090701902697 L543.60565131264,363.5784706937694 M543.60565131264,363.5784706937694 L541.9704903533252,363.0520193450209 M541.9704903533252,363.0520193450209 L540.6013931488274,362.3121783347077 M540.6013931488274,362.3121783347077 L539.5778555024606,361.40203301029123 M539.5778555024606,361.40203301029123 L538.9593678211203,360.37451077266917 M538.9593678211203,360.37451077266917 L538.7817894530626,359.28937062846296 M538.7817894530626,359.28937062846296 L539.0553447141224,358.2096858354597 M436.82212752721335,428.0939112818875 L436.903944493929,437.62777689120196 M374.35556888295264,431.81564125413206 L436.903944493929,437.62777689120196 M436.903944493929,437.62777689120196 L418.58913313234,501.4028228077077 M418.58913313234,501.4028228077077 L343.73668021511935,494.41577085717495 M468.07176521475634,494.0259477328095 L464.49895378495006,501.6241191688746 M458.70279192593205,488.4687548077152 L468.07176521475634,494.0259477328095 M445.7611174517879,490.50233469155614 L458.70279192593205,488.4687548077152 M442.1774654308382,498.09680558505806 L445.7611174517879,490.50233469155614 M451.54632425011465,503.661399599843 L442.1774654308382,498.09680558505806 M464.49895378495006,501.6241191688746 L451.54632425011465,503.661399599843 M559.4431892273121,373.22812787762814 L555.9477936306067,380.6999412117748 M550.1175986535366,367.7633047748375 L559.4431892273121,373.22812787762814 M555.9477936306067,380.6999412117748 L543.1161172929833,382.7033359360064 M537.2966801717885,369.76308319399004 L550.1175986535366,367.7633047748375 M543.1161172929833,382.7033359360064 L533.7905932794333,377.23129556611354 M533.7905932794333,377.23129556611354 L537.2966801717885,369.76308319399004 M418.5007367781648,491.8484138450614 L418.58913313234,501.4028228077077 M447.45521477458715,478.9563528263117 L447.5337153541797,488.5066230161733 M447.5337153541797,488.5066230161733 L447.250998318779,489.6049238716604 M447.250998318779,489.6049238716604 L447.4230254942557,490.70877549457646 M447.4230254942557,490.70877549457646 L448.03989928908044,491.7540184050698 M448.03989928908044,491.7540184050698 L449.06584786569965,492.6798580083396 M449.06584786569965,492.6798580083396 L450.4412566585432,493.43246297639325 M450.4412566585432,493.43246297639325 L452.08624867944843,493.9679949828028 M452.08624867944843,493.9679949828028 L453.9051122405155,494.2553031286949 M453.9051122405155,494.2553031286949 L455.79207351352636,494.2776673422634 M455.79207351352636,494.2776673422634 L457.63737801072466,494.03375571545325 M457.63737801072466,494.03375571545325 L459.333674956146,493.53779372628867 M459.333674956146,493.53779372628867 L460.782320010567,492.8186455678457 M460.782320010567,492.8186455678457 L461.89910664127075,491.9181776264703 M461.89910664127075,491.9181776264703 L462.6191908359783,490.8887451665951 M462.6191908359783,490.8887451665951 L462.90076616835665,489.79024938572286 M462.90076616835665,489.79024938572286 L462.72756913773856,488.6865379080758 M462.72756913773856,488.6865379080758 L462.1097653330464,487.6417381085877 M462.1097653330464,487.6417381085877 L461.08333965715366,486.71654306358494 M461.08333965715366,486.71654306358494 L459.7080159357403,485.96463646517907 M459.7080159357403,485.96463646517907 L458.0636517260679,485.42969661777227 M458.0636517260679,485.42969661777227 L456.24581484808505,485.1427387845896 M456.24581484808505,485.1427387845896 L454.3600439434135,485.12040279516873 M454.3600439434135,485.12040279516873 L452.51582080557216,485.3640140563101 M452.51582080557216,485.3640140563101 L450.8202484755799,485.8594159297487 M450.8202484755799,485.8594159297487 L449.37180529207325,486.5778725293453 M449.37180529207325,486.5778725293453 L448.2546515552663,487.47767590495107 M448.2546515552663,487.47767590495107 L447.5337153541797,488.5066230161733 M539.0553447141224,358.2096858354597 L539.1023920575578,367.72081383347063 M539.1023920575578,367.72081383347063 L538.8289323202587,368.8008516567637 M538.8289323202587,368.8008516567637 L539.0064545408338,369.8863465599127 M539.0064545408338,369.8863465599127 L539.6247376011993,370.9142046688419 M539.6247376011993,370.9142046688419 L540.6479339899888,371.8246474556155 M540.6479339899888,371.8246474556155 L542.016573121502,372.56473023917033 M542.016573121502,372.56473023917033 L543.6511857922585,373.09135361174083 M543.6511857922585,373.09135361174083 L545.4566594900007,373.37388222084303 M545.4566594900007,373.37388222084303 L547.3279944769633,373.3958713199188 M547.3279944769633,373.3958713199188 L549.1563612105831,373.15602038492716 M549.1563612105831,373.15602038492716 L550.8353798619748,372.6683088261724 M550.8353798619748,372.6683088261724 L552.2674219942555,371.96112641867853 M552.2674219942555,371.96112641867853 L553.3692418824003,371.07562729495646 M553.3692418824003,371.07562729495646 L554.0768436542912,370.06333221199657 M554.0768436542912,370.06333221199657 L554.3491768446248,368.98310277019925 M554.3491768446248,368.98310277019925 L554.1705077122085,367.89774606342417 M554.1705077122085,367.89774606342417 L553.5513234393909,366.8703139245779 M553.5513234393909,366.8703139245779 L552.5276724685081,365.9604935549904 M552.5276724685081,365.9604935549904 L551.1591001903487,365.2211040522948 M551.1591001903487,365.2211040522948 L549.5251323372916,364.6950473995977 M549.5251323372916,364.6950473995977 L547.7206651963888,364.41285733584687 M547.7206651963888,364.41285733584687 L545.8504929941059,364.39090341873884 M545.8504929941059,364.39090341873884 L544.0231983479711,364.6304553231158 M544.0231983479711,364.6304553231158 L542.3448782006924,365.11762681088805 M542.3448782006924,365.11762681088805 L540.9130302851013,365.824134841758 M540.9130302851013,365.824134841758 L539.8108532196537,366.70897823712903 M539.8108532196537,366.70897823712903 L539.1023920575578,367.72081383347063 M468.02409431589103,487.6628783264265 L464.450449898009,495.2594264356603 M464.450449898009,495.2594264356603 L464.49895378495006,501.6241191688746 M468.02409431589103,487.6628783264265 L468.07176521475634,494.0259477328095 M458.65302256770786,482.1068738206869 L468.02409431589103,487.6628783264265 M458.65302256770786,482.1068738206869 L458.70279192593205,488.4687548077152 M445.70841672090097,484.14001870658797 L458.65302256770786,482.1068738206869 M445.70841672090097,484.14001870658797 L445.7611174517879,490.50233469155614 M442.12392682317824,491.73286622773367 L445.70841672090097,484.14001870658797 M442.12392682317824,491.73286622773367 L442.1774654308382,498.09680558505806 M451.4948840241673,497.29627191421423 L442.12392682317824,491.73286622773367 M451.4948840241673,497.29627191421423 L451.54632425011465,503.661399599843 M464.450449898009,495.2594264356603 L451.4948840241673,497.29627191421423 M559.4163957492261,366.8911087500659 L555.920202355438,374.36129755182765 M555.920202355438,374.36129755182765 L555.9477936306067,380.6999412117748 M559.4163957492261,366.8911087500659 L559.4431892273121,373.22812787762814 M550.0887259973968,361.4274749208564 L559.4163957492261,366.8911087500659 M550.0887259973968,361.4274749208564 L550.1175986535366,367.7633047748375 M555.920202355438,374.36129755182765 L543.0856442565457,376.3642569915064 M543.0856442565457,376.3642569915064 L543.1161172929833,382.7033359360064 M537.2649305836849,363.42681803315975 L550.0887259973968,361.4274749208564 M537.2649305836849,363.42681803315975 L537.2966801717885,369.76308319399004 M543.0856442565457,376.3642569915064 L533.7580411097135,370.89340584726654 M533.7580411097135,370.89340584726654 L533.7905932794333,377.23129556611354 M533.7580411097135,370.89340584726654 L537.2649305836849,363.42681803315975" stroke="black"  stroke-width="4"  fill="red"/>
<path d="M158.52859711874004,530.8319200464166 L158.2336635537854,514.8992143535525 M158.52859711874004,530.8319200464166 L149.17275110471064,528.2734998645035 M149.17275110471064,528.2734998645035 L139.25625087055414,526.5570768791647 M139.25625087055414,526.5570768791647 L128.9903840931866,525.7189403415467 M128.9903840931866,525.7189403415467 L118.59385896071512,525.7767391035112 M118.59385896071512,525.7767391035112 L108.2879932488733,526.7292649611047 M108.2879932488733,526.7292649611047 L98.29222210824287,528.5564394397712 M98.29222210824287,528.5564394397712 L88.81967157300613,531.2196185329198 M88.81967157300613,531.2196185329198 L80.0724617857951,534.6625398033966 M80.0724617857951,534.6625398033966 L72.23772538724177,538.8122895756901 M72.23772538724177,538.8122895756901 L65.48350341833554,543.580878238959 M65.48350341833554,543.580878238959 L59.955135845210464,548.8670403073152 M59.955135845210464,548.8670403073152 L55.77225303541468,554.5582318971001 M55.77225303541468,554.5582318971001 L53.025970527160894,560.5330576607188 M53.025970527160894,560.5330576607188 L51.77698052983328,566.6637267889345 M51.77698052983328,566.6637267889345 L52.05396895533954,572.8188113693516 M52.05396895533954,572.8188113693516 L53.85291095470109,578.8660183372091 M53.85291095470109,578.8660183372091 L57.136924103526496,584.6750819688394 M57.136924103526496,584.6750819688394 L61.837085134619485,590.1204933870048 M61.837085134619485,590.1204933870048 L67.85350973071513,595.0844046104864 M67.85350973071513,595.0844046104864 L75.05762827100722,599.4591174977678 M75.05762827100722,599.4591174977678 L83.29478966109139,603.1495479133506 M83.29478966109139,603.1495479133506 L92.3875759206075,606.075364844895 M92.3875759206075,606.075364844895 L102.13975600495507,608.17274924762 M102.13975600495507,608.17274924762 L112.34037512623814,609.3959781558585 M112.34037512623814,609.3959781558585 L122.7686662874824,609.7183131976 M122.7686662874824,609.7183131976 L133.19876188806865,609.1327164895329 M133.19876188806865,609.1327164895329 L143.40478306384477,607.6519720123434 M143.40478306384477,607.6519720123434 L153.16580023317943,605.308434215541 M153.16580023317943,605.308434215541 L162.27083132830836,602.1532072007261 M162.27083132830836,602.1532072007261 L170.523349659021,598.2550717393925 M170.523349659021,598.2550717393925 L177.74575169246228,593.6988275548952 M177.74575169246228,593.6988275548952 L183.78306396916292,588.5834580422985 M183.78306396916292,588.5834580422985 L188.50627024932083,583.0198955672996 M188.50627024932083,583.0198955672996 L191.81519348123666,577.1284620035462 M191.81519348123666,577.1284620035462 L193.6402576459251,571.0363562039653 M193.6402576459251,571.0363562039653 L193.9441443149247,564.8747201287347 M193.9441443149247,564.8747201287347 L192.7222699009081,558.7758689771113 M192.7222699009081,558.7758689771113 L190.00265449487858,552.8705065193748 M190.00265449487858,552.8705065193748 L185.84539925427453,547.284789202438 M185.84539925427453,547.284789202438 L185.56562854571115,531.3433395902131 M185.56562854571115,531.3433395902131 L189.72513555950488,536.9260931689827 M189.72513555950488,536.9260931689827 L192.44618224275985,542.8283249363793 M192.44618224275985,542.8283249363793 L193.66863479747943,548.9239456788829 M193.66863479747943,548.9239456788829 L193.36445864591414,555.0823210384751 M193.36445864591414,555.0823210384751 L191.53824139583074,561.1712058317961 M191.53824139583074,561.1712058317961 L188.2273241418112,567.0595272443933 M188.2273241418112,567.0595272443933 L183.5013240022659,572.6201532541141 M183.5013240022659,572.6201532541141 L177.4604766600263,577.732824991552 M177.4604766600263,577.732824991552 L170.23387354005143,582.2866679961074 M170.23387354005143,582.2866679961074 L161.97657819425547,586.1827503930091 M161.97657819425547,586.1827503930091 L152.8662972262772,589.3363164861397 M152.8662972262772,589.3363164861397 L143.09967120232136,591.6786211401459 M143.09967120232136,591.6786211401459 L132.88780423461657,593.158586687583 M132.88780423461657,593.158586687583 L122.45175344143325,593.7438753960195 M122.45175344143325,593.7438753960195 L112.01752774437597,593.4217098858559 M112.01752774437597,593.4217098858559 L101.81112437312129,592.1991244066264 M101.81112437312129,592.1991244066264 L92.05343651005131,590.1028435181619 M92.05343651005131,590.1028435181619 L82.95553890792297,587.1785665446967 M82.95553890792297,587.1785665446967 L74.71377348842645,583.4900794827465 M74.71377348842645,583.4900794827465 L67.5056576660466,579.1176716645957 M67.5056576660466,579.1176716645957 L61.485928285732484,574.1563777729209 M61.485928285732484,574.1563777729209 L56.78322520344358,568.7138397809528 M56.78322520344358,568.7138397809528 L53.497486072010815,562.9078440191613 M53.497486072010815,562.9078440191613 L51.69766942939805,556.8638334877752 M51.69766942939805,556.8638334877752 L51.4206744563578,550.7120052978172 M51.4206744563578,550.7120052978172 L52.67052395627519,544.5845825832087 M52.67052395627519,544.5845825832087 L55.41851144076247,538.6129235319574 M55.41851144076247,538.6129235319574 L59.603906174600525,532.9247509176762 M59.603906174600525,532.9247509176762 L65.1355372110578,527.6413952362889 M65.1355372110578,527.6413952362889 L71.89370311345658,522.8753400555723 M71.89370311345658,522.8753400555723 L79.73297888727069,518.7277964303672 M79.73297888727069,518.7277964303672 L88.48522627709127,515.2867065535612 M88.48522627709127,515.2867065535612 L97.96320531665788,512.6249447205143 M97.96320531665788,512.6249447205143 L107.96468074302516,510.7987429268927 M107.96468074302516,510.7987429268927 L118.27640581109813,509.84672424391545 M118.27640581109813,509.84672424391545 L128.67882165499844,509.78895625931625 M128.67882165499844,509.78895625931625 L138.95048618367622,510.62664652165347 M138.95048618367622,510.62664652165347 L148.8725687236755,512.342155749325 M148.8725687236755,512.342155749325 L158.2336635537854,514.8992143535525 M106.02838534357352,545.0064932492315 L158.2336635537854,514.8992143535525 M106.35355968049288,560.9551919563675 L158.52859711874004,530.8319200464166 M106.02838534357352,545.0064932492315 L106.35355968049288,560.9551919563675 M133.66785249061064,577.4764909074904 L106.35355968049288,560.9551919563675 M185.84539925427453,547.284789202438 L133.66785249061064,577.4764909074904 M134.13086585514367,594.7084174765625 L132.3529529893658,595.1283912417279 M132.3529529893658,595.1283912417279 L130.78692868482284,595.7859428546876 M130.78692868482284,595.7859428546876 L129.52379658782445,596.642907519252 M129.52379658782445,596.642907519252 L128.63696718574647,597.6495473825809 M128.63696718574647,597.6495473825809 L128.17807401515836,598.7473855469539 M128.17807401515836,598.7473855469539 L128.17378468837222,599.8727064663335 M128.17378468837222,599.8727064663335 L128.62454450044925,600.9600490807856 M128.62454450044925,600.9600490807856 L129.50422470430118,601.9462070853084 M129.50422470430118,601.9462070853084 L130.76174001613492,602.7738233547101 M130.76174001613492,602.7738233547101 L132.32404285870388,603.3947313798221 M132.32404285870388,603.3947313798221 L134.10027226822928,603.7727996451183 M134.10027226822928,603.7727996451183 L135.98713756566013,603.8860119688935 M135.98713756566013,603.8860119688935 L137.87490434269228,603.72776090173 M137.87490434269228,603.72776090173 L139.65370969468677,603.3072929336652 M139.65370969468677,603.3072929336652 L141.2201392963039,602.6490608597119 M141.2201392963039,602.6490608597119 L142.48310388322625,601.7913897565405 M142.48310388322625,601.7913897565405 L143.36923134459204,600.7841793086764 M143.36923134459204,600.7841793086764 L143.8270417304596,599.6860327481875 M143.8270417304596,599.6860327481875 L143.83012527906004,598.560742229983 M143.83012527906004,598.560742229983 L143.3783057377983,597.4737574729629 M143.3783057377983,597.4737574729629 L142.497957224095,596.4882043788454 M142.497957224095,596.4882043788454 L141.24031549963541,595.6612999178769 M141.24031549963541,595.6612999178769 L139.67846435428334,595.0410519080924 M139.67846435428334,595.0410519080924 L137.9031540172062,594.6634362919513 M137.9031540172062,594.6634362919513 L136.01746724314745,594.5503671307506 M136.01746724314745,594.5503671307506 L134.13086585514367,594.7084174765625 M77.3133269624401,560.3017867502712 L77.62545547648182,559.1934484426764 M77.62545547648182,559.1934484426764 L77.48105432760929,558.0798626436069 M77.48105432760929,558.0798626436069 L76.88864113591956,557.0257192829281 M76.88864113591956,557.0257192829281 L75.88273816320083,556.0922352693877 M75.88273816320083,556.0922352693877 L74.5218227138945,555.3336166698468 M74.5218227138945,555.3336166698468 L72.88500123655257,554.793881845327 M72.88500123655257,554.793881845327 L71.06733310580705,554.5043562426966 M71.06733310580705,554.5043562426966 L69.17434094310067,554.4818503854019 M69.17434094310067,554.4818503854019 L67.31603012227407,554.7276118958378 M67.31603012227407,554.7276118958378 L65.60021111113741,555.227444125649 M65.60021111113741,555.227444125649 L64.12657019360734,555.9523229555067 M64.12657019360734,555.9523229555067 L62.980721526245134,556.8601881212514 M62.980721526245134,556.8601881212514 L62.22930998098383,557.8983243132337 M62.22930998098383,557.8983243132337 L61.91603294164605,559.0064635612653 M61.91603294164605,559.0064635612653 L62.059250791414684,560.1201913431951 M62.059250791414684,560.1201913431951 L62.650714380786496,561.1747836236673 M62.650714380786496,561.1747836236673 L63.656121575960924,562.1089222316054 M63.656121575960924,562.1089222316054 L65.01710146973818,562.8682467725405 M65.01710146973818,562.8682467725405 L66.65454003261868,563.4085815328034 M66.65454003261868,563.4085815328034 L68.47323393751788,563.6984620438899 M68.47323393751788,563.6984620438899 L70.3674281818395,563.7209980318554 M70.3674281818395,563.7209980318554 L72.22683475777853,563.4749306785689 M72.22683475777853,563.4749306785689 L73.94340202353152,562.9745325621878 M73.94340202353152,562.9745325621878 L75.41726506195948,562.2489531069349 M75.41726506195948,562.2489531069349 L76.56275882981134,561.3404130760044 M76.56275882981134,561.3404130760044 L77.3133269624401,560.3017867502712 M185.56562854571115,531.3433395902131 L133.3578367347808,561.5190508140762 M133.3578367347808,561.5190508140762 L133.66785249061064,577.4764909074904 M133.3578367347808,561.5190508140762 L106.02838534357352,545.0064932492315 M145.01415157527305,588.8874336539 L131.9164324140968,590.952784644961 M148.7834166280711,581.1846181883087 L145.01415157527305,588.8874336539 M139.465889536548,575.5509299827081 L148.7834166280711,581.1846181883087 M126.37937773083576,577.6125005777049 L139.465889536548,575.5509299827081 M122.5991874267553,585.3115356580319 L126.37937773083576,577.6125005777049 M131.9164324140968,590.952784644961 L122.5991874267553,585.3115356580319 M56.357514193285795,545.2046400543964 L60.16222272621172,537.5479418443539 M65.62350042412379,550.8148537504654 L56.357514193285795,545.2046400543964 M60.16222272621172,537.5479418443539 L73.22207118932903,535.4977040085967 M78.69451171634341,548.7608666620498 L65.62350042412379,550.8148537504654 M73.22207118932903,535.4977040085967 L82.48837219330994,541.1004192100546 M82.48837219330994,541.1004192100546 L78.69451171634341,548.7608666620498 M133.94483653618693,585.130677193779 L135.83208407637926,584.9726767992447 M135.83208407637926,584.9726767992447 L137.7184132381164,585.0857102251999 M137.7184132381164,585.0857102251999 L139.4943249430503,585.4632065011438 M139.4943249430503,585.4632065011438 L141.05670154490332,586.0832585046122 M141.05670154490332,586.0832585046122 L142.31476229556415,586.9099016812074 M142.31476229556415,586.9099016812074 L143.19539905065625,587.8951434031677 M143.19539905065625,587.8951434031677 L143.64735925174966,588.981784794836 M143.64735925174966,588.981784794836 L143.64426053566473,590.1067199056699 M143.64426053566473,590.1067199056699 L143.1862800008285,591.2045196890198 M143.1862800008285,591.2045196890198 L142.2998371984084,592.211412125584 M142.2998371984084,592.211412125584 L141.03643037872405,593.0688124696804 M141.03643037872405,593.0688124696804 L139.4694573402149,593.7268367690425 M139.4694573402149,593.7268367690425 L137.6900389610483,594.1471720246935 M137.6900389610483,594.1471720246935 L135.801625232202,594.3053731451766 M135.801625232202,594.3053731451766 L133.91411674376388,594.1921965529826 M133.91411674376388,594.1921965529826 L132.13728534424632,593.8142476162982 M132.13728534424632,593.8142476162982 L130.57445674587797,593.1935355811487 M130.57445674587797,593.1935355811487 L129.31652250237573,592.3661805773612 M129.31652250237573,592.3661805773612 L128.43655452141627,591.3803339295127 M128.43655452141627,591.3803339295127 L127.9856547780559,590.2933346712532 M127.9856547780559,590.2933346712532 L127.98996009737738,589.1683691590059 M127.98996009737738,589.1683691590059 L128.4490241518593,588.0708777791255 M128.4490241518593,588.0708777791255 L129.3361693681765,587.0645559422408 M129.3361693681765,587.0645559422408 L130.59974380338411,586.207862054833 M130.59974380338411,586.207862054833 L132.16631125837046,585.5505182333408 M132.16631125837046,585.5505182333408 L133.94483653618693,585.130677193779 M133.94483653618693,585.130677193779 L134.13086585514367,594.7084174765625 M77.10838367065145,550.7349481671658 L76.35754521263027,551.7732445936509 M76.35754521263027,551.7732445936509 L75.2116483831652,552.681496086125 M75.2116483831652,552.681496086125 L73.73727295681886,553.406845136181 M73.73727295681886,553.406845136181 L72.02011376539599,553.9070843672741 M72.02011376539599,553.9070843672741 L70.16007018482026,554.1530735941088 M70.16007018482026,554.1530735941088 L68.26523090539342,554.1305447612076 M68.26523090539342,554.1305447612076 L66.44592152732332,553.8407562878663 M66.44592152732332,553.8407562878663 L64.80793287168962,553.3005930956698 M64.80793287168962,553.3005930956698 L63.44650026613647,552.5415096799453 M63.44650026613647,552.5415096799453 L62.4407640578014,551.6076677468689 M62.4407640578014,551.6076677468689 L61.849114239012806,550.5534104454933 M61.849114239012806,550.5534104454933 L61.70586371406068,549.4400364829345 M61.70586371406068,549.4400364829345 L62.01926347170604,548.3322493365253 M62.01926347170604,548.3322493365253 L62.77094591086552,547.29444305549 M62.77094591086552,547.29444305549 L63.9171978711114,546.3868664430363 M63.9171978711114,546.3868664430363 L65.39135101522038,545.6622180343326 M65.39135101522038,545.6622180343326 L67.10776143503938,545.1625447032333 M67.10776143503938,545.1625447032333 L68.96670850870532,544.9168613256795 M68.96670850870532,544.9168613256795 L70.86034488884775,544.9393600277592 M70.86034488884775,544.9393600277592 L72.67862779896797,545.2287935845613 M72.67862779896797,545.2287935845613 L74.31599895720854,545.7683568273508 M74.31599895720854,545.7683568273508 L75.67736708358262,546.5267342850674 M75.67736708358262,546.5267342850674 L76.68359941747292,547.4599216093729 M76.68359941747292,547.4599216093729 L77.27619949196048,548.5137299807307 M77.27619949196048,548.5137299807307 L77.42063412423266,549.6269619571955 M77.42063412423266,549.6269619571955 L77.10838367065145,550.7349481671658 M77.10838367065145,550.7349481671658 L77.3133269624401,560.3017867502712 M145.01415157527305,588.8874336539 L145.13577856612483,595.2783690243283 M131.9164324140968,590.952784644961 L132.04106044242826,597.3441554458848 M145.13577856612483,595.2783690243283 L132.04106044242826,597.3441554458848 M148.7834166280711,581.1846181883087 L148.90412121545836,587.5739284251443 M148.90412121545836,587.5739284251443 L145.13577856612483,595.2783690243283 M139.465889536548,575.5509299827081 L139.58866781304795,581.9390504535885 M139.58866781304795,581.9390504535885 L148.90412121545836,587.5739284251443 M126.37937773083576,577.6125005777049 L126.50515190969026,584.001056542225 M126.50515190969026,584.001056542225 L139.58866781304795,581.9390504535885 M122.5991874267553,585.3115356580319 L122.72588895154615,591.7017168192884 M122.72588895154615,591.7017168192884 L126.50515190969026,584.001056542225 M132.04106044242826,597.3441554458848 L122.72588895154615,591.7017168192884 M56.357514193285795,545.2046400543964 L56.498910025218436,551.5863346835464 M60.16222272621172,537.5479418443539 L60.302680453904486,543.9280106129534 M56.498910025218436,551.5863346835464 L60.302680453904486,543.9280106129534 M65.62350042412379,550.8148537504654 L65.76284579114656,557.1977385155795 M65.76284579114656,557.1977385155795 L56.498910025218436,551.5863346835464 M73.22207118932903,535.4977040085967 L73.35954523556535,541.8773371084538 M60.302680453904486,543.9280106129534 L73.35954523556535,541.8773371084538 M78.69451171634341,548.7608666620498 L78.83086829743058,555.1433158139937 M78.83086829743058,555.1433158139937 L65.76284579114656,557.1977385155795 M82.48837219330994,541.1004192100546 L82.62379556026457,547.4812425570194 M73.35954523556535,541.8773371084538 L82.62379556026457,547.4812425570194 M82.62379556026457,547.4812425570194 L78.83086829743058,555.1433158139937" stroke="black"  stroke-width="4"  fill="red"/>
<path d="M692.6649498082529,238.24374373579212 L374.2526538011597,422.2836573416697 M374.35556888295264,431.81564125413206 L374.2526538011597,422.2836573416697 M374.35556888295264,431.81564125413206 L317.8713185810295,464.48485895958686 M317.74904438276053,454.9423188512451 L317.8713185810295,464.48485895958686 M317.74904438276053,454.9423188512451 L133.3578367347808,561.5190508140762 M133.3578367347808,561.5190508140762 L133.66785249061064,577.4764909074904 M692.6573501511348,254.0261714421739 L133.66785249061064,577.4764909074904 M692.6649498082529,238.24374373579212 L692.6573501511348,254.0261714421739 M665.3213750575239,222.456923492852 L692.6649498082529,238.24374373579212 M106.02838534357352,545.0064932492315 L665.3213750575239,222.456923492852 M133.3578367347808,561.5190508140762 L106.02838534357352,545.0064932492315 M317.74904438276053,454.9423188512451 L328.63626155094664,418.047688706539 M328.63626155094664,418.047688706539 L374.2526538011597,422.2836573416697 M627.9183920399374,254.45297111955495 L631.3516591953619,247.09970473035315 M637.2151721012518,259.84075698287637 L627.9183920399374,254.45297111955495 M631.3516591953619,247.09970473035315 L644.0711506780893,245.13069332115214 M649.9452423382124,257.86821700125375 L637.2151721012518,259.84075698287637 M644.0711506780893,245.13069332115214 L653.3679497543474,250.5114220411802 M653.3679497543474,250.5114220411802 L649.9452423382124,257.86821700125375 M175.55050419870486,526.483709056471 L171.80951773888978,534.12873648398 M166.25765389115224,520.8922677158332 L175.55050419870486,526.483709056471 M171.80951773888978,534.12873648398 L158.76482643754835,536.1785871400059 M153.2240789647506,522.9383804337705 L166.25765389115224,520.8922677158332 M158.76482643754835,536.1785871400059 L149.47224229619349,530.5796699332566 M149.47224229619349,530.5796699332566 L153.2240789647506,522.9383804337705 M328.7545475090337,427.57829976857045 L374.35556888295264,431.81564125413206 M328.63626155094664,418.047688706539 L328.7545475090337,427.57829976857045 M317.8713185810295,464.48485895958686 L328.7545475090337,427.57829976857045 M106.02838534357352,545.0064932492315 L106.35355968049288,560.9551919563675 M133.66785249061064,577.4764909074904 L106.35355968049288,560.9551919563675 M665.3289578499423,238.23059535285762 L692.6573501511348,254.0261714421739 M106.35355968049288,560.9551919563675 L665.3289578499423,238.23059535285762 M646.1203448724984,265.11981435691354 L644.6604841994138,264.4571713963264 M644.6604841994138,264.4571713963264 L642.9686722992187,264.0162330729155 M642.9686722992187,264.0162330729155 L641.1431714118028,263.8225791450652 M641.1431714118028,263.8225791450652 L639.289980117052,263.8874442316294 M639.289980117052,263.8874442316294 L637.5166971131605,264.2070677859428 M637.5166971131605,264.2070677859428 L635.9263030147976,264.76290434428427 M635.9263030147976,264.76290434428427 L634.6111760634818,265.52270306467744 M634.6111760634818,265.52270306467744 L633.6477494516915,266.44236256516615 M633.6477494516915,266.44236256516615 L633.0920565234849,267.4684882811997 M633.0920565234849,267.4684882811997 L632.9764775520568,268.5414750346418 M632.9764775520568,268.5414750346418 L633.307823491072,269.598974052067 M633.307823491072,269.598974052067 L634.066929371035,270.57950755205155 M634.066929371035,270.57950755205155 L635.209749953973,271.42604453378925 M635.209749953973,271.42604453378925 L636.6698850592443,272.0893361438033 M636.6698850592443,272.0893361438033 L638.3624608825876,272.530774516872 M638.3624608825876,272.530774516872 L640.189040174017,272.7246653425505 M640.189040174017,272.7246653425505 L642.0433773053651,272.6597197312391 M642.0433773053651,272.6597197312391 L643.817611083021,272.3397166741891 M643.817611083021,272.3397166741891 L645.4085430791487,271.78328857753377 M645.4085430791487,271.78328857753377 L646.7236718273734,271.0228217957009 M646.7236718273734,271.0228217957009 L647.6865637235976,270.10257075688486 M647.6865637235976,270.10257075688486 L648.2413079196638,269.0760655387622 M648.2413079196638,269.0760655387622 L648.3557414877974,268.0029982596388 M648.3557414877974,268.0029982596388 L648.0233158704275,266.9457361397863 M648.0233158704275,266.9457361397863 L647.263443377213,265.96570269115836 M647.263443377213,265.96570269115836 L646.1203448724984,265.11981435691354 M157.13582355525585,547.7486689136948 L158.60160584014565,548.4379264289812 M158.60160584014565,548.4379264289812 L160.31191805645003,548.8966480582186 M160.31191805645003,548.8966480582186 L162.16729408497383,549.0981307974574 M162.16729408497383,549.0981307974574 L164.05980929945997,549.0306448054347 M164.05980929945997,549.0306448054347 L165.87940395637014,548.6981030714251 M165.87940395637014,548.6981030714251 L167.52019607375883,548.1198935017297 M167.52019607375883,548.1198935017297 L168.88682559326378,547.3296466501888 M168.88682559326378,547.3296466501888 L169.89983116015526,546.3733699613742 M169.89983116015526,546.3733699613742 L170.50043218092,545.3066655246633 M170.50043218092,545.3066655246633 L170.65375972954791,544.1915884929613 M170.65375972954791,544.1915884929613 L170.35103275510522,543.09293390098 M170.35103275510522,543.09293390098 L169.6099393777654,542.0745311008505 M169.6099393777654,542.0745311008505 L168.47361611021768,541.1955221711779 M168.47361611021768,541.1955221711779 L167.00809640691625,540.5069517605673 M167.00809640691625,540.5069517605673 L165.298560598973,540.0487598272996 M165.298560598973,540.0487598272996 L163.44429693892766,539.8475280312457 M163.44429693892766,539.8475280312457 L161.5529752243575,539.9149287276064 M161.5529752243575,539.9149287276064 L159.73438179613788,540.247068448022 M159.73438179613788,540.247068448022 L158.09416924947448,540.8246514132031 M158.09416924947448,540.8246514132031 L156.72756488357504,541.6141905884557 M156.72756488357504,541.6141905884557 L155.7140242902007,542.569840666714 M155.7140242902007,542.569840666714 L155.11245061902684,543.6361430933288 M155.11245061902684,543.6361430933288 L154.95793563432295,544.7511348231144 M154.95793563432295,544.7511348231144 L155.259532401289,545.8500403589653 M155.259532401289,545.8500403589653 L155.99981171486675,546.8689728643902 M155.99981171486675,546.8689728643902 L157.13582355525585,547.7486689136948 M665.3213750575239,222.456923492852 L665.3289578499423,238.23059535285762 M627.9183920399374,254.45297111955495 L627.9297570258612,260.7716387636618 M631.3516591953619,247.09970473035315 L631.3622546327354,253.4167441035745 M627.9297570258612,260.7716387636618 L631.3622546327354,253.4167441035745 M637.2151721012518,259.84075698287637 L637.224471609622,266.16061659794 M637.224471609622,266.16061659794 L627.9297570258612,260.7716387636618 M644.0711506780893,245.13069332115214 L644.0789157835306,251.4472963991489 M631.3622546327354,253.4167441035745 L644.0789157835306,251.4472963991489 M649.9452423382124,257.86821700125375 L649.951706805113,264.1876403252799 M649.951706805113,264.1876403252799 L637.224471609622,266.16061659794 M653.3679497543474,250.5114220411802 L653.373649369544,256.82921709850785 M644.0789157835306,251.4472963991489 L653.373649369544,256.82921709850785 M653.373649369544,256.82921709850785 L649.951706805113,264.1876403252799 M175.55050419870486,526.483709056471 L175.66468453549518,532.8614251524375 M171.80951773888978,534.12873648398 L171.9246071573481,540.5080786095684 M175.66468453549518,532.8614251524375 L171.9246071573481,540.5080786095684 M166.25765389115224,520.8922677158332 L166.3738970505243,527.2687934041987 M166.3738970505243,527.2687934041987 L175.66468453549518,532.8614251524375 M158.76482643754835,536.1785871400059 L158.8828926548914,542.5583649398535 M171.9246071573481,540.5080786095684 L158.8828926548914,542.5583649398535 M153.2240789647506,522.9383804337705 L153.3432938502491,529.3153418492357 M153.3432938502491,529.3153418492357 L166.3738970505243,527.2687934041987 M149.47224229619349,530.5796699332566 L149.5923711550319,536.9582574311838 M158.8828926548914,542.5583649398535 L149.5923711550319,536.9582574311838 M149.5923711550319,536.9582574311838 L153.3432938502491,529.3153418492357 M646.1093776004135,255.64878253098658 L647.2528569333251,256.494390485078 M647.2528569333251,256.494390485078 L648.0129823032812,257.47409913140734 M648.0129823032812,257.47409913140734 L648.3455181078082,258.53101090431477 M648.3455181078082,258.53101090431477 L648.2310455717334,259.6037226526497 M648.2310455717334,259.6037226526497 L647.676115450593,260.6298878174977 M647.676115450593,260.6298878174977 L646.7129014247412,261.5498340441205 M646.7129014247412,261.5498340441205 L645.3973330317492,262.31004896859145 M645.3973330317492,262.31004896859145 L643.8058694273814,262.86629280018167 M643.8058694273814,262.86629280018167 L642.0310430026584,263.1861898925447 M642.0310430026584,263.1861898925447 L640.1760866839452,263.2511139985805 M640.1760866839452,263.2511139985805 L638.3488977138487,263.0572873760654 M638.3488977138487,263.0572873760654 L636.655757214174,262.6159951832691 M636.655757214174,262.6159951832691 L635.1951352972875,261.95292323636147 M635.1951352972875,261.95292323636147 L634.051934072295,261.1066666332635 M634.051934072295,261.1066666332635 L633.2925758278828,260.1264579344108 M633.2925758278828,260.1264579344108 L632.9611204227904,259.0693092633778 M632.9611204227904,259.0693092633778 L633.0767391268365,257.9966780409121 M633.0767391268365,257.9966780409121 L633.6326186132146,256.9708923790389 M633.6326186132146,256.9708923790389 L634.5963677111135,256.05153769212353 M634.5963677111135,256.05153769212353 L635.9119343053967,255.29199083065112 M635.9119343053967,255.29199083065112 L637.5028596523312,254.73633853875504 M637.5028596523312,254.73633853875504 L639.2767346681475,254.4168209500139 M639.2767346681475,254.4168209500139 L641.1305443851522,254.35197736891354 M641.1305443851522,254.35197736891354 L642.956654231432,254.54556709304745 M642.956654231432,254.54556709304745 L644.6490302983607,254.98635923501922 M644.6490302983607,254.98635923501922 L646.1093776004135,255.64878253098658 M646.1093776004135,255.64878253098658 L646.1203448724984,265.11981435691354 M156.95822316327707,538.1858215781322 L155.8218354884939,537.3064055038217 M155.8218354884939,537.3064055038217 L155.08131675925847,536.287797332561 M155.08131675925847,536.287797332561 L154.77963086043735,535.1892416414244 M154.77963086043735,535.1892416414244 L154.93421211041505,534.0746049353291 M154.93421211041505,534.0746049353291 L155.53600353373065,533.0086420837579 M155.53600353373065,533.0086420837579 L156.5499006385632,532.0532963874159 M156.5499006385632,532.0532963874159 L157.9169795415864,531.2640087187501 M157.9169795415864,531.2640087187501 L159.55775706250716,530.6866097602997 M159.55775706250716,530.6866097602997 L161.37697311832613,530.3545758602345 M161.37697311832613,530.3545758602345 L163.26893897091782,530.2871966384954 M163.26893897091782,530.2871966384954 L165.1238309237836,530.4883643204618 M165.1238309237836,530.4883643204618 L166.83394272904263,530.9464102771282 M166.83394272904263,530.9464102771282 L168.29995270299042,531.6347613327331 M168.29995270299042,531.6347613327331 L169.43665202521152,532.5134902724687 M169.43665202521152,532.5134902724687 L170.1779853786872,533.5315687269143 M170.1779853786872,533.5315687269143 L170.48080225726295,534.629873468724 M170.48080225726295,534.629873468724 L170.32740925052082,535.7445954785908 M170.32740925052082,535.7445954785908 L169.7265911347539,536.8109603490008 M169.7265911347539,536.8109603490008 L168.71322941297035,537.7669326695259 M168.71322941297035,537.7669326695259 L167.34612533065723,538.5569280298702 M167.34612533065723,538.5569280298702 L165.70476783696074,539.1349536064616 M165.70476783696074,539.1349536064616 L163.88454986613027,539.4673895288637 M163.88454986613027,539.4673895288637 L161.9913897002712,539.5348540481198 M161.9913897002712,539.5348540481198 L160.13538462486437,539.3334354175112 M160.13538462486437,539.3334354175112 L158.4244958892162,538.8748597533555 M158.4244958892162,538.8748597533555 L156.95822316327707,538.1858215781322 M156.95822316327707,538.1858215781322 L157.13582355525585,547.7486689136948" stroke="black"  stroke-width="4"  fill="red"/></svg>