<svg version="1.1" xmlns="http://www.w3.org/2000/svg" viewBox="-39.73687714153921 -5.94396023719409 79.47375428307842 11.887920474388178" fill="none" stroke="black" stroke-width="0.6%" vector-effect="non-scaling-stroke">
    <path d="M 7.71865 -1.22299 L 12.24291 -0.77291" />
    <path d="M 7.71865 -0.70001 L 7.71865 -1.22299" />
    <path d="M -38.73688 0.43649 A 18 0.38158 180 0 0 -24.89579 0.80774" />
    <path d="M -1.74022 3.03833 A 25 0.52997 0 0 1 -24.89579 2.5098" />
    <path d="M -1.74022 3.03833 L 2.73688 3.48372" />
    <path d="M 2.73688 4.56238 A 18 0.38158 180 1 0 38.73688 4.56238" />
    <path d="M 22.02332 -0.81709 A 18 0.38158 0 0 1 38.73688 -0.43649 A 18 0.38158 0 0 1 2.73688 -0.43649 A 18 0.38158 0 0 1 12.24291 -0.77291" />
    <path d="M 22.02332 -0.81709 L 17.49906 -1.26717 L 19.45514 -1.27601 L 11.95235 -2.0224" />
    <path d="M 1.94864 -3.01759 A 25 0.52997 0 0 1 25.10421 -2.48907 A 25 0.52997 0 0 1 11.95235 -2.0224" />
    <path d="M 1.94864 -3.01759 L -5.55415 -3.76399 L -7.51024 -3.75515 L -12.24291 -4.22596" />
    <path d="M -22.02332 -4.18178 A 18 0.38158 0 0 1 -38.73688 -4.56238 A 18 0.38158 0 1 1 -2.73688 -4.56238 A 18 0.38158 0 0 1 -12.24291 -4.22596" />
    <path d="M -22.02332 -4.18178 L -17.29065 -3.71097 L -19.24673 -3.70213 L -11.74394 -2.95574" />
    <path d="M -1.74022 -1.96055 A 25 0.52997 0 0 1 -24.89579 -2.48907 A 25 0.52997 0 0 1 -11.74394 -2.95574" />
    <path d="M -1.74022 -1.96055 L 5.76256 -1.21416 L 7.71865 -1.22299" />
    <path d="M 27.81078 -0.62017 L 30.08711 -0.56663 L 33.41246 -0.58165 L 34.46146 -0.65021 L 32.18513 -0.70375 L 28.85979 -0.68873 L 27.81078 -0.62017 Z" />
    <path d="M 5.14355 -0.5816 L 4.09454 -0.51304 L 6.37087 -0.4595 L 9.69621 -0.47452 L 10.74522 -0.54308 L 8.46889 -0.59662 L 5.14355 -0.5816 Z" />
    <path d="M 22.60562 -0.07767 L 25.93096 -0.09269 L 26.97997 -0.16125 L 24.70364 -0.21479 L 21.37829 -0.19977 L 20.32929 -0.13121 L 22.60562 -0.07767 Z" />
    <path d="M -37.37921 -4.63893 L -35.10288 -4.58539 L -31.77754 -4.60041 L -30.72853 -4.66897 L -33.00487 -4.72251 L -36.33021 -4.70749 L -37.37921 -4.63893 Z" />
    <path d="M -10.09408 -2.98487 L 0.32646 -1.94821 L 10.30249 -1.99328 L -0.11805 -3.02993 L -10.09408 -2.98487 Z" />
    <path d="M -14.49378 -4.28714 L -15.54279 -4.21858 L -18.86813 -4.20356 L -21.14447 -4.2571 L -20.09546 -4.32566 L -16.77012 -4.34068 L -14.49378 -4.28714 Z" />
    <path d="M -13.66297 -4.74606 L -11.38664 -4.69252 L -8.0613 -4.70754 L -7.01229 -4.7761 L -9.28862 -4.82964 L -12.61396 -4.81462 L -13.66297 -4.74606 Z" />
    <path d="M 5.76256 -0.64823 L 5.76256 -1.21416" />
    <path d="M 19.45514 -1.07258 L 19.45514 -1.27601" />
    <path d="M -22.02332 -4.18178 L -22.02332 -2.73572" />
    <path d="M -19.24673 -2.82461 L -19.24673 -3.70213" />
    <path d="M -1.74022 -1.96055 L -1.74022 3.03833" />
    <path d="M 28.85979 -0.5955 L 28.85979 -0.68873" />
    <path d="M 32.18513 -0.57611 L 32.18513 -0.70375" />
    <path d="M 5.14355 -0.48837 L 5.14355 -0.5816" />
    <path d="M 8.46889 -0.46898 L 8.46889 -0.59662" />
    <path d="M 21.37829 -0.10654 L 21.37829 -0.19977" />
    <path d="M 24.70364 -0.08715 L 24.70364 -0.21479" />
    <path d="M -36.33021 -4.61426 L -36.33021 -4.70749" />
    <path d="M -33.00487 -4.59487 L -33.00487 -4.72251" />
    <path d="M -0.11805 -1.99243 L -0.11805 -3.02993" />
    <path d="M -20.09546 -4.23243 L -20.09546 -4.32566" />
    <path d="M -16.77012 -4.21304 L -16.77012 -4.34068" />
    <path d="M -12.61396 -4.72139 L -12.61396 -4.81462" />
    <path d="M -9.28862 -4.702 L -9.28862 -4.82964" />
    <path d="M 2.73688 -0.43649 L 2.73688 4.56238" />
    <path d="M 38.73688 -0.43649 L 38.73688 4.56238" />
    <path d="M -38.73688 -4.56238 L -38.73688 0.43649" />
    <path d="M -2.73688 -4.56238 L -2.73688 -3.48372" />
    <path d="M -24.89579 -2.48907 L -24.89579 2.5098" />
    <path d="M 25.10421 -2.48907 L 25.10421 -0.80667" />
</svg>